<svg width="230" height="208" viewBox="0 0 230 208" fill="none" xmlns="http://www.w3.org/2000/svg">
<path d="M22.3595 181.098C21.7144 181.098 21.1348 180.986 20.6206 180.762C20.1157 180.528 19.7184 180.21 19.4286 179.808C19.1388 179.397 18.9892 178.925 18.9798 178.392H20.3401C20.3869 178.85 20.5738 179.238 20.9011 179.556C21.2376 179.864 21.7238 180.018 22.3595 180.018C22.9672 180.018 23.444 179.869 23.7899 179.57C24.1452 179.261 24.3228 178.868 24.3228 178.392C24.3228 178.018 24.22 177.714 24.0143 177.48C23.8086 177.246 23.5515 177.069 23.243 176.947C22.9345 176.826 22.5185 176.695 21.9949 176.555C21.3498 176.386 20.8309 176.218 20.4383 176.05C20.055 175.881 19.7231 175.62 19.4426 175.264C19.1715 174.9 19.0359 174.414 19.0359 173.806C19.0359 173.273 19.1715 172.801 19.4426 172.389C19.7137 171.978 20.0924 171.66 20.5785 171.436C21.074 171.212 21.6396 171.099 22.2754 171.099C23.1916 171.099 23.9395 171.328 24.5192 171.786C25.1081 172.245 25.44 172.852 25.5148 173.61H24.1125C24.0657 173.236 23.8694 172.908 23.5235 172.628C23.1776 172.338 22.7195 172.193 22.1492 172.193C21.6163 172.193 21.1815 172.333 20.845 172.614C20.5084 172.885 20.3401 173.268 20.3401 173.764C20.3401 174.119 20.4383 174.409 20.6346 174.633C20.8403 174.858 21.088 175.031 21.3779 175.152C21.677 175.264 22.0931 175.395 22.626 175.545C23.2711 175.722 23.7899 175.9 24.1826 176.078C24.5752 176.246 24.9118 176.512 25.1923 176.877C25.4728 177.232 25.613 177.718 25.613 178.336C25.613 178.812 25.4868 179.261 25.2344 179.682C24.9819 180.102 24.608 180.444 24.1125 180.706C23.617 180.967 23.0326 181.098 22.3595 181.098ZM30.8426 181.126C30.1227 181.126 29.4683 180.963 28.8793 180.635C28.2997 180.308 27.8416 179.845 27.505 179.247C27.1778 178.639 27.0142 177.938 27.0142 177.144C27.0142 176.358 27.1824 175.666 27.519 175.068C27.8649 174.46 28.3324 173.998 28.9214 173.68C29.5104 173.352 30.1695 173.189 30.8987 173.189C31.6279 173.189 32.287 173.352 32.876 173.68C33.465 173.998 33.9278 174.456 34.2644 175.054C34.6103 175.652 34.7832 176.349 34.7832 177.144C34.7832 177.938 34.6056 178.639 34.2504 179.247C33.9044 179.845 33.4323 180.308 32.834 180.635C32.2356 180.963 31.5718 181.126 30.8426 181.126ZM30.8426 180.004C31.3007 180.004 31.7308 179.897 32.1328 179.682C32.5348 179.467 32.8573 179.144 33.1004 178.714C33.3528 178.284 33.4791 177.761 33.4791 177.144C33.4791 176.526 33.3575 176.003 33.1144 175.573C32.8714 175.143 32.5535 174.825 32.1608 174.619C31.7682 174.404 31.3428 174.297 30.8847 174.297C30.4172 174.297 29.9872 174.404 29.5945 174.619C29.2112 174.825 28.9027 175.143 28.6689 175.573C28.4352 176.003 28.3184 176.526 28.3184 177.144C28.3184 177.77 28.4305 178.298 28.6549 178.728C28.8886 179.158 29.1972 179.481 29.5805 179.696C29.9638 179.901 30.3845 180.004 30.8426 180.004ZM37.7373 174.563C37.9617 174.124 38.2795 173.783 38.6909 173.539C39.1116 173.296 39.6211 173.175 40.2195 173.175V174.493H39.8829C38.4525 174.493 37.7373 175.269 37.7373 176.821V181H36.4612V173.315H37.7373V174.563ZM48.7044 176.863C48.7044 177.106 48.6904 177.363 48.6624 177.634H42.52C42.5668 178.392 42.8239 178.985 43.2913 179.415C43.7681 179.836 44.3431 180.046 45.0162 180.046C45.5678 180.046 46.0259 179.92 46.3905 179.668C46.7645 179.406 47.0263 179.06 47.1759 178.63H48.5502C48.3445 179.369 47.9331 179.972 47.3161 180.439C46.6991 180.897 45.9324 181.126 45.0162 181.126C44.287 181.126 43.6326 180.963 43.0529 180.635C42.4826 180.308 42.0339 179.845 41.7066 179.247C41.3794 178.639 41.2158 177.938 41.2158 177.144C41.2158 176.349 41.3748 175.652 41.6926 175.054C42.0105 174.456 42.4546 173.998 43.0249 173.68C43.6045 173.352 44.2683 173.189 45.0162 173.189C45.7455 173.189 46.3905 173.348 46.9515 173.666C47.5124 173.984 47.9425 174.423 48.2417 174.984C48.5502 175.535 48.7044 176.162 48.7044 176.863ZM47.3862 176.597C47.3862 176.11 47.2787 175.694 47.0637 175.348C46.8486 174.993 46.5541 174.727 46.1802 174.549C45.8156 174.362 45.4089 174.269 44.9601 174.269C44.315 174.269 43.7634 174.474 43.3053 174.886C42.8566 175.297 42.5995 175.867 42.534 176.597H47.3862ZM59.6305 173.175C60.2288 173.175 60.7617 173.301 61.2292 173.553C61.6966 173.797 62.0659 174.166 62.3371 174.661C62.6082 175.157 62.7437 175.76 62.7437 176.47V181H61.4816V176.653C61.4816 175.886 61.29 175.302 60.9066 174.9C60.5327 174.488 60.0232 174.283 59.3781 174.283C58.7143 174.283 58.1861 174.498 57.7934 174.928C57.4007 175.348 57.2044 175.961 57.2044 176.765V181H55.9423V176.653C55.9423 175.886 55.7506 175.302 55.3673 174.9C54.9933 174.488 54.4838 174.283 53.8387 174.283C53.1749 174.283 52.6467 174.498 52.2541 174.928C51.8614 175.348 51.6651 175.961 51.6651 176.765V181H50.3889V173.315H51.6651V174.423C51.9175 174.021 52.2541 173.712 52.6748 173.497C53.1048 173.282 53.577 173.175 54.0912 173.175C54.7362 173.175 55.3065 173.32 55.802 173.61C56.2975 173.899 56.6668 174.325 56.9099 174.886C57.1249 174.343 57.4802 173.923 57.9757 173.624C58.4712 173.324 59.0228 173.175 59.6305 173.175ZM69.2349 172.067C68.9918 172.067 68.7862 171.983 68.6179 171.815C68.4496 171.646 68.3655 171.441 68.3655 171.197C68.3655 170.954 68.4496 170.749 68.6179 170.58C68.7862 170.412 68.9918 170.328 69.2349 170.328C69.4687 170.328 69.665 170.412 69.8239 170.58C69.9922 170.749 70.0763 170.954 70.0763 171.197C70.0763 171.441 69.9922 171.646 69.8239 171.815C69.665 171.983 69.4687 172.067 69.2349 172.067ZM69.852 173.315V181H68.5758V173.315H69.852ZM73.3031 174.731C73.5555 174.292 73.9295 173.927 74.425 173.638C74.9298 173.338 75.5142 173.189 76.1779 173.189C76.8604 173.189 77.4775 173.352 78.0291 173.68C78.59 174.007 79.0294 174.47 79.3473 175.068C79.6652 175.657 79.8241 176.344 79.8241 177.129C79.8241 177.905 79.6652 178.597 79.3473 179.205C79.0294 179.813 78.59 180.285 78.0291 180.621C77.4775 180.958 76.8604 181.126 76.1779 181.126C75.5235 181.126 74.9439 180.981 74.439 180.691C73.9435 180.392 73.5649 180.023 73.3031 179.584V184.646H72.0269V173.315H73.3031V174.731ZM78.5199 177.129C78.5199 176.55 78.403 176.045 78.1693 175.615C77.9356 175.185 77.6177 174.858 77.2157 174.633C76.823 174.409 76.3883 174.297 75.9115 174.297C75.444 174.297 75.0093 174.414 74.6073 174.647C74.2146 174.872 73.8968 175.204 73.6537 175.643C73.42 176.073 73.3031 176.573 73.3031 177.144C73.3031 177.723 73.42 178.233 73.6537 178.672C73.8968 179.102 74.2146 179.434 74.6073 179.668C75.0093 179.892 75.444 180.004 75.9115 180.004C76.3883 180.004 76.823 179.892 77.2157 179.668C77.6177 179.434 77.9356 179.102 78.1693 178.672C78.403 178.233 78.5199 177.718 78.5199 177.129ZM84.2244 181.126C83.6354 181.126 83.1072 181.028 82.6398 180.832C82.1723 180.626 81.803 180.346 81.5319 179.99C81.2608 179.626 81.1112 179.21 81.0831 178.742H82.4014C82.4388 179.126 82.6164 179.439 82.9343 179.682C83.2615 179.925 83.6869 180.046 84.2104 180.046C84.6966 180.046 85.0799 179.939 85.3603 179.724C85.6408 179.509 85.7811 179.238 85.7811 178.91C85.7811 178.574 85.6315 178.326 85.3323 178.167C85.0331 177.999 84.5703 177.835 83.944 177.676C83.3737 177.527 82.9062 177.377 82.5416 177.228C82.1863 177.069 81.8778 176.84 81.616 176.54C81.3636 176.232 81.2374 175.83 81.2374 175.334C81.2374 174.942 81.3543 174.582 81.588 174.255C81.8217 173.927 82.1536 173.67 82.5837 173.483C83.0137 173.287 83.5046 173.189 84.0561 173.189C84.9069 173.189 85.5941 173.404 86.1176 173.834C86.6412 174.264 86.9216 174.853 86.959 175.601H85.6829C85.6548 175.199 85.4912 174.876 85.1921 174.633C84.9022 174.39 84.5096 174.269 84.0141 174.269C83.556 174.269 83.1914 174.367 82.9202 174.563C82.6491 174.759 82.5135 175.017 82.5135 175.334C82.5135 175.587 82.593 175.797 82.7519 175.966C82.9202 176.124 83.1259 176.255 83.369 176.358C83.6214 176.452 83.9673 176.559 84.4067 176.681C84.9583 176.83 85.4071 176.98 85.753 177.129C86.0989 177.27 86.3934 177.485 86.6365 177.775C86.8889 178.064 87.0198 178.443 87.0292 178.91C87.0292 179.331 86.9123 179.71 86.6786 180.046C86.4448 180.383 86.1129 180.649 85.6829 180.846C85.2622 181.033 84.776 181.126 84.2244 181.126ZM95.6461 173.315V181H94.37V179.864C94.1269 180.257 93.7857 180.565 93.3463 180.79C92.9162 181.005 92.4394 181.112 91.9159 181.112C91.3175 181.112 90.7799 180.991 90.3031 180.748C89.8263 180.495 89.4477 180.121 89.1672 179.626C88.8961 179.13 88.7605 178.527 88.7605 177.817V173.315H90.0227V177.648C90.0227 178.406 90.2143 178.99 90.5976 179.401C90.9809 179.803 91.5045 180.004 92.1683 180.004C92.8508 180.004 93.3883 179.794 93.781 179.373C94.1737 178.953 94.37 178.34 94.37 177.536V173.315H95.6461ZM107.042 173.175C107.641 173.175 108.174 173.301 108.641 173.553C109.109 173.797 109.478 174.166 109.749 174.661C110.02 175.157 110.156 175.76 110.156 176.47V181H108.894V176.653C108.894 175.886 108.702 175.302 108.319 174.9C107.945 174.488 107.435 174.283 106.79 174.283C106.126 174.283 105.598 174.498 105.205 174.928C104.813 175.348 104.616 175.961 104.616 176.765V181H103.354V176.653C103.354 175.886 103.163 175.302 102.779 174.9C102.405 174.488 101.896 174.283 101.251 174.283C100.587 174.283 100.059 174.498 99.666 174.928C99.2733 175.348 99.077 175.961 99.077 176.765V181H97.8008V173.315H99.077V174.423C99.3294 174.021 99.666 173.712 100.087 173.497C100.517 173.282 100.989 173.175 101.503 173.175C102.148 173.175 102.718 173.32 103.214 173.61C103.709 173.899 104.079 174.325 104.322 174.886C104.537 174.343 104.892 173.923 105.388 173.624C105.883 173.324 106.435 173.175 107.042 173.175ZM115.511 177.129C115.511 176.344 115.67 175.657 115.988 175.068C116.306 174.47 116.74 174.007 117.292 173.68C117.853 173.352 118.479 173.189 119.171 173.189C119.769 173.189 120.326 173.329 120.84 173.61C121.354 173.881 121.747 174.241 122.018 174.689V170.623H123.308V181H122.018V179.556C121.765 180.014 121.392 180.392 120.896 180.691C120.401 180.981 119.821 181.126 119.157 181.126C118.475 181.126 117.853 180.958 117.292 180.621C116.74 180.285 116.306 179.813 115.988 179.205C115.67 178.597 115.511 177.905 115.511 177.129ZM122.018 177.144C122.018 176.564 121.901 176.059 121.667 175.629C121.434 175.199 121.116 174.872 120.714 174.647C120.321 174.414 119.886 174.297 119.41 174.297C118.933 174.297 118.498 174.409 118.105 174.633C117.713 174.858 117.399 175.185 117.166 175.615C116.932 176.045 116.815 176.55 116.815 177.129C116.815 177.718 116.932 178.233 117.166 178.672C117.399 179.102 117.713 179.434 118.105 179.668C118.498 179.892 118.933 180.004 119.41 180.004C119.886 180.004 120.321 179.892 120.714 179.668C121.116 179.434 121.434 179.102 121.667 178.672C121.901 178.233 122.018 177.723 122.018 177.144ZM128.816 181.126C128.096 181.126 127.442 180.963 126.853 180.635C126.273 180.308 125.815 179.845 125.479 179.247C125.151 178.639 124.988 177.938 124.988 177.144C124.988 176.358 125.156 175.666 125.493 175.068C125.839 174.46 126.306 173.998 126.895 173.68C127.484 173.352 128.143 173.189 128.872 173.189C129.602 173.189 130.261 173.352 130.85 173.68C131.439 173.998 131.901 174.456 132.238 175.054C132.584 175.652 132.757 176.349 132.757 177.144C132.757 177.938 132.579 178.639 132.224 179.247C131.878 179.845 131.406 180.308 130.808 180.635C130.209 180.963 129.546 181.126 128.816 181.126ZM128.816 180.004C129.274 180.004 129.704 179.897 130.106 179.682C130.508 179.467 130.831 179.144 131.074 178.714C131.327 178.284 131.453 177.761 131.453 177.144C131.453 176.526 131.331 176.003 131.088 175.573C130.845 175.143 130.527 174.825 130.135 174.619C129.742 174.404 129.316 174.297 128.858 174.297C128.391 174.297 127.961 174.404 127.568 174.619C127.185 174.825 126.876 175.143 126.643 175.573C126.409 176.003 126.292 176.526 126.292 177.144C126.292 177.77 126.404 178.298 126.629 178.728C126.862 179.158 127.171 179.481 127.554 179.696C127.937 179.901 128.358 180.004 128.816 180.004ZM135.711 170.623V181H134.435V170.623H135.711ZM141.238 181.126C140.518 181.126 139.863 180.963 139.274 180.635C138.695 180.308 138.237 179.845 137.9 179.247C137.573 178.639 137.409 177.938 137.409 177.144C137.409 176.358 137.577 175.666 137.914 175.068C138.26 174.46 138.727 173.998 139.316 173.68C139.905 173.352 140.564 173.189 141.294 173.189C142.023 173.189 142.682 173.352 143.271 173.68C143.86 173.998 144.323 174.456 144.659 175.054C145.005 175.652 145.178 176.349 145.178 177.144C145.178 177.938 145.001 178.639 144.645 179.247C144.299 179.845 143.827 180.308 143.229 180.635C142.631 180.963 141.967 181.126 141.238 181.126ZM141.238 180.004C141.696 180.004 142.126 179.897 142.528 179.682C142.93 179.467 143.252 179.144 143.495 178.714C143.748 178.284 143.874 177.761 143.874 177.144C143.874 176.526 143.753 176.003 143.509 175.573C143.266 175.143 142.949 174.825 142.556 174.619C142.163 174.404 141.738 174.297 141.28 174.297C140.812 174.297 140.382 174.404 139.99 174.619C139.606 174.825 139.298 175.143 139.064 175.573C138.83 176.003 138.713 176.526 138.713 177.144C138.713 177.77 138.826 178.298 139.05 178.728C139.284 179.158 139.592 179.481 139.975 179.696C140.359 179.901 140.78 180.004 141.238 180.004ZM148.132 174.563C148.357 174.124 148.675 173.783 149.086 173.539C149.507 173.296 150.016 173.175 150.614 173.175V174.493H150.278C148.848 174.493 148.132 175.269 148.132 176.821V181H146.856V173.315H148.132V174.563ZM158.547 181.126C157.958 181.126 157.43 181.028 156.962 180.832C156.495 180.626 156.126 180.346 155.854 179.99C155.583 179.626 155.434 179.21 155.406 178.742H156.724C156.761 179.126 156.939 179.439 157.257 179.682C157.584 179.925 158.009 180.046 158.533 180.046C159.019 180.046 159.402 179.939 159.683 179.724C159.963 179.509 160.104 179.238 160.104 178.91C160.104 178.574 159.954 178.326 159.655 178.167C159.356 177.999 158.893 177.835 158.266 177.676C157.696 177.527 157.229 177.377 156.864 177.228C156.509 177.069 156.2 176.84 155.939 176.54C155.686 176.232 155.56 175.83 155.56 175.334C155.56 174.942 155.677 174.582 155.911 174.255C156.144 173.927 156.476 173.67 156.906 173.483C157.336 173.287 157.827 173.189 158.379 173.189C159.229 173.189 159.917 173.404 160.44 173.834C160.964 174.264 161.244 174.853 161.282 175.601H160.005C159.977 175.199 159.814 174.876 159.515 174.633C159.225 174.39 158.832 174.269 158.337 174.269C157.878 174.269 157.514 174.367 157.243 174.563C156.972 174.759 156.836 175.017 156.836 175.334C156.836 175.587 156.916 175.797 157.074 175.966C157.243 176.124 157.448 176.255 157.692 176.358C157.944 176.452 158.29 176.559 158.729 176.681C159.281 176.83 159.73 176.98 160.076 177.129C160.421 177.27 160.716 177.485 160.959 177.775C161.211 178.064 161.342 178.443 161.352 178.91C161.352 179.331 161.235 179.71 161.001 180.046C160.767 180.383 160.435 180.649 160.005 180.846C159.585 181.033 159.099 181.126 158.547 181.126ZM163.812 172.067C163.569 172.067 163.364 171.983 163.195 171.815C163.027 171.646 162.943 171.441 162.943 171.197C162.943 170.954 163.027 170.749 163.195 170.58C163.364 170.412 163.569 170.328 163.812 170.328C164.046 170.328 164.242 170.412 164.401 170.58C164.57 170.749 164.654 170.954 164.654 171.197C164.654 171.441 164.57 171.646 164.401 171.815C164.242 171.983 164.046 172.067 163.812 172.067ZM164.429 173.315V181H163.153V173.315H164.429ZM168.161 174.367V178.896C168.161 179.27 168.24 179.537 168.399 179.696C168.558 179.845 168.834 179.92 169.227 179.92H170.166V181H169.016C168.306 181 167.773 180.836 167.418 180.509C167.062 180.182 166.885 179.644 166.885 178.896V174.367H165.889V173.315H166.885V171.38H168.161V173.315H170.166V174.367H168.161ZM174.974 177.129C174.974 176.344 175.133 175.657 175.451 175.068C175.769 174.47 176.204 174.007 176.755 173.68C177.316 173.352 177.938 173.189 178.621 173.189C179.294 173.189 179.878 173.334 180.374 173.624C180.869 173.913 181.238 174.278 181.481 174.717V173.315H182.772V181H181.481V179.57C181.229 180.018 180.85 180.392 180.345 180.691C179.85 180.981 179.27 181.126 178.607 181.126C177.924 181.126 177.307 180.958 176.755 180.621C176.204 180.285 175.769 179.813 175.451 179.205C175.133 178.597 174.974 177.905 174.974 177.129ZM181.481 177.144C181.481 176.564 181.365 176.059 181.131 175.629C180.897 175.199 180.579 174.872 180.177 174.647C179.785 174.414 179.35 174.297 178.873 174.297C178.396 174.297 177.961 174.409 177.569 174.633C177.176 174.858 176.863 175.185 176.629 175.615C176.395 176.045 176.279 176.55 176.279 177.129C176.279 177.718 176.395 178.233 176.629 178.672C176.863 179.102 177.176 179.434 177.569 179.668C177.961 179.892 178.396 180.004 178.873 180.004C179.35 180.004 179.785 179.892 180.177 179.668C180.579 179.434 180.897 179.102 181.131 178.672C181.365 178.233 181.481 177.723 181.481 177.144ZM194.17 173.175C194.768 173.175 195.301 173.301 195.768 173.553C196.236 173.797 196.605 174.166 196.876 174.661C197.147 175.157 197.283 175.76 197.283 176.47V181H196.021V176.653C196.021 175.886 195.829 175.302 195.446 174.9C195.072 174.488 194.562 174.283 193.917 174.283C193.253 174.283 192.725 174.498 192.333 174.928C191.94 175.348 191.744 175.961 191.744 176.765V181H190.481V176.653C190.481 175.886 190.29 175.302 189.907 174.9C189.533 174.488 189.023 174.283 188.378 174.283C187.714 174.283 187.186 174.498 186.793 174.928C186.401 175.348 186.204 175.961 186.204 176.765V181H184.928V173.315H186.204V174.423C186.457 174.021 186.793 173.712 187.214 173.497C187.644 173.282 188.116 173.175 188.63 173.175C189.275 173.175 189.846 173.32 190.341 173.61C190.837 173.899 191.206 174.325 191.449 174.886C191.664 174.343 192.019 173.923 192.515 173.624C193.01 173.324 193.562 173.175 194.17 173.175ZM206.388 176.863C206.388 177.106 206.374 177.363 206.346 177.634H200.204C200.25 178.392 200.508 178.985 200.975 179.415C201.452 179.836 202.027 180.046 202.7 180.046C203.251 180.046 203.71 179.92 204.074 179.668C204.448 179.406 204.71 179.06 204.86 178.63H206.234C206.028 179.369 205.617 179.972 205 180.439C204.383 180.897 203.616 181.126 202.7 181.126C201.971 181.126 201.316 180.963 200.737 180.635C200.166 180.308 199.718 179.845 199.39 179.247C199.063 178.639 198.899 177.938 198.899 177.144C198.899 176.349 199.058 175.652 199.376 175.054C199.694 174.456 200.138 173.998 200.709 173.68C201.288 173.352 201.952 173.189 202.7 173.189C203.429 173.189 204.074 173.348 204.635 173.666C205.196 173.984 205.626 174.423 205.925 174.984C206.234 175.535 206.388 176.162 206.388 176.863ZM205.07 176.597C205.07 176.11 204.962 175.694 204.747 175.348C204.532 174.993 204.238 174.727 203.864 174.549C203.499 174.362 203.093 174.269 202.644 174.269C201.999 174.269 201.447 174.474 200.989 174.886C200.54 175.297 200.283 175.867 200.218 176.597H205.07ZM209.629 174.367V178.896C209.629 179.27 209.709 179.537 209.868 179.696C210.027 179.845 210.302 179.92 210.695 179.92H211.635V181H210.485C209.774 181 209.241 180.836 208.886 180.509C208.531 180.182 208.353 179.644 208.353 178.896V174.367H207.357V173.315H208.353V171.38H209.629V173.315H211.635V174.367H209.629ZM73.6866 198.144C73.6866 197.349 73.8455 196.657 74.1634 196.068C74.4812 195.47 74.9206 195.007 75.4816 194.68C76.0519 194.352 76.7016 194.189 77.4309 194.189C78.3751 194.189 79.1511 194.418 79.7588 194.876C80.3758 195.334 80.7825 195.97 80.9788 196.783H79.6045C79.4736 196.316 79.2165 195.946 78.8332 195.675C78.4593 195.404 77.9918 195.269 77.4309 195.269C76.7016 195.269 76.1126 195.521 75.6639 196.026C75.2151 196.521 74.9907 197.227 74.9907 198.144C74.9907 199.069 75.2151 199.784 75.6639 200.289C76.1126 200.794 76.7016 201.046 77.4309 201.046C77.9918 201.046 78.4593 200.916 78.8332 200.654C79.2072 200.392 79.4643 200.018 79.6045 199.532H80.9788C80.7732 200.317 80.3618 200.948 79.7448 201.425C79.1277 201.892 78.3564 202.126 77.4309 202.126C76.7016 202.126 76.0519 201.963 75.4816 201.635C74.9206 201.308 74.4812 200.845 74.1634 200.247C73.8455 199.649 73.6866 198.948 73.6866 198.144ZM86.0333 202.126C85.3134 202.126 84.6589 201.963 84.07 201.635C83.4903 201.308 83.0322 200.845 82.6956 200.247C82.3684 199.639 82.2048 198.938 82.2048 198.144C82.2048 197.358 82.3731 196.666 82.7097 196.068C83.0556 195.46 83.523 194.998 84.112 194.68C84.701 194.352 85.3601 194.189 86.0894 194.189C86.8186 194.189 87.4777 194.352 88.0667 194.68C88.6557 194.998 89.1185 195.456 89.455 196.054C89.8009 196.652 89.9739 197.349 89.9739 198.144C89.9739 198.938 89.7963 199.639 89.441 200.247C89.0951 200.845 88.623 201.308 88.0246 201.635C87.4263 201.963 86.7625 202.126 86.0333 202.126ZM86.0333 201.004C86.4914 201.004 86.9214 200.897 87.3234 200.682C87.7254 200.467 88.048 200.144 88.2911 199.714C88.5435 199.284 88.6697 198.761 88.6697 198.144C88.6697 197.526 88.5482 197.003 88.3051 196.573C88.062 196.143 87.7441 195.825 87.3515 195.619C86.9588 195.404 86.5334 195.297 86.0753 195.297C85.6079 195.297 85.1778 195.404 84.7852 195.619C84.4018 195.825 84.0933 196.143 83.8596 196.573C83.6259 197.003 83.509 197.526 83.509 198.144C83.509 198.77 83.6212 199.298 83.8456 199.728C84.0793 200.158 84.3878 200.481 84.7711 200.696C85.1544 200.901 85.5752 201.004 86.0333 201.004ZM95.3961 194.175C96.331 194.175 97.0883 194.46 97.6679 195.03C98.2476 195.591 98.5374 196.405 98.5374 197.47V202H97.2753V197.653C97.2753 196.886 97.0836 196.302 96.7003 195.9C96.317 195.488 95.7935 195.283 95.1297 195.283C94.4565 195.283 93.919 195.493 93.517 195.914C93.1243 196.334 92.928 196.947 92.928 197.751V202H91.6518V194.315H92.928V195.409C93.1804 195.016 93.5216 194.712 93.9517 194.497C94.3911 194.282 94.8726 194.175 95.3961 194.175ZM103.343 202.126C102.754 202.126 102.225 202.028 101.758 201.832C101.29 201.626 100.921 201.346 100.65 200.99C100.379 200.626 100.229 200.21 100.201 199.742H101.52C101.557 200.126 101.735 200.439 102.052 200.682C102.38 200.925 102.805 201.046 103.329 201.046C103.815 201.046 104.198 200.939 104.479 200.724C104.759 200.509 104.899 200.238 104.899 199.91C104.899 199.574 104.75 199.326 104.45 199.167C104.151 198.999 103.689 198.835 103.062 198.676C102.492 198.527 102.024 198.377 101.66 198.228C101.304 198.069 100.996 197.84 100.734 197.54C100.482 197.232 100.356 196.83 100.356 196.334C100.356 195.942 100.472 195.582 100.706 195.255C100.94 194.927 101.272 194.67 101.702 194.483C102.132 194.287 102.623 194.189 103.174 194.189C104.025 194.189 104.712 194.404 105.236 194.834C105.759 195.264 106.04 195.853 106.077 196.601H104.801C104.773 196.199 104.609 195.876 104.31 195.633C104.02 195.39 103.628 195.269 103.132 195.269C102.674 195.269 102.31 195.367 102.038 195.563C101.767 195.759 101.632 196.017 101.632 196.334C101.632 196.587 101.711 196.797 101.87 196.966C102.038 197.124 102.244 197.255 102.487 197.358C102.74 197.452 103.085 197.559 103.525 197.681C104.076 197.83 104.525 197.98 104.871 198.129C105.217 198.27 105.512 198.485 105.755 198.775C106.007 199.064 106.138 199.443 106.147 199.91C106.147 200.331 106.03 200.71 105.797 201.046C105.563 201.383 105.231 201.649 104.801 201.846C104.38 202.033 103.894 202.126 103.343 202.126ZM114.961 197.863C114.961 198.106 114.947 198.363 114.919 198.634H108.776C108.823 199.392 109.08 199.985 109.547 200.415C110.024 200.836 110.599 201.046 111.272 201.046C111.824 201.046 112.282 200.92 112.647 200.668C113.021 200.406 113.282 200.06 113.432 199.63H114.806C114.601 200.369 114.189 200.972 113.572 201.439C112.955 201.897 112.189 202.126 111.272 202.126C110.543 202.126 109.889 201.963 109.309 201.635C108.739 201.308 108.29 200.845 107.963 200.247C107.636 199.639 107.472 198.938 107.472 198.144C107.472 197.349 107.631 196.652 107.949 196.054C108.267 195.456 108.711 194.998 109.281 194.68C109.861 194.352 110.524 194.189 111.272 194.189C112.002 194.189 112.647 194.348 113.208 194.666C113.769 194.984 114.199 195.423 114.498 195.984C114.806 196.535 114.961 197.162 114.961 197.863ZM113.642 197.597C113.642 197.11 113.535 196.694 113.32 196.348C113.105 195.993 112.81 195.727 112.436 195.549C112.072 195.362 111.665 195.269 111.216 195.269C110.571 195.269 110.02 195.474 109.562 195.886C109.113 196.297 108.856 196.867 108.79 197.597H113.642ZM116.168 198.144C116.168 197.349 116.327 196.657 116.645 196.068C116.963 195.47 117.402 195.007 117.963 194.68C118.534 194.352 119.183 194.189 119.913 194.189C120.857 194.189 121.633 194.418 122.241 194.876C122.858 195.334 123.264 195.97 123.461 196.783H122.086C121.955 196.316 121.698 195.946 121.315 195.675C120.941 195.404 120.474 195.269 119.913 195.269C119.183 195.269 118.594 195.521 118.146 196.026C117.697 196.521 117.472 197.227 117.472 198.144C117.472 199.069 117.697 199.784 118.146 200.289C118.594 200.794 119.183 201.046 119.913 201.046C120.474 201.046 120.941 200.916 121.315 200.654C121.689 200.392 121.946 200.018 122.086 199.532H123.461C123.255 200.317 122.844 200.948 122.227 201.425C121.609 201.892 120.838 202.126 119.913 202.126C119.183 202.126 118.534 201.963 117.963 201.635C117.402 201.308 116.963 200.845 116.645 200.247C116.327 199.649 116.168 198.948 116.168 198.144ZM126.72 195.367V199.896C126.72 200.27 126.799 200.537 126.958 200.696C127.117 200.845 127.393 200.92 127.786 200.92H128.725V202H127.575C126.865 202 126.332 201.836 125.977 201.509C125.621 201.182 125.444 200.644 125.444 199.896V195.367H124.448V194.315H125.444V192.38H126.72V194.315H128.725V195.367H126.72ZM137.283 197.863C137.283 198.106 137.269 198.363 137.241 198.634H131.099C131.146 199.392 131.403 199.985 131.87 200.415C132.347 200.836 132.922 201.046 133.595 201.046C134.147 201.046 134.605 200.92 134.969 200.668C135.343 200.406 135.605 200.06 135.755 199.63H137.129C136.923 200.369 136.512 200.972 135.895 201.439C135.278 201.897 134.511 202.126 133.595 202.126C132.866 202.126 132.212 201.963 131.632 201.635C131.062 201.308 130.613 200.845 130.286 200.247C129.958 199.639 129.795 198.938 129.795 198.144C129.795 197.349 129.954 196.652 130.272 196.054C130.589 195.456 131.034 194.998 131.604 194.68C132.183 194.352 132.847 194.189 133.595 194.189C134.324 194.189 134.969 194.348 135.53 194.666C136.091 194.984 136.521 195.423 136.821 195.984C137.129 196.535 137.283 197.162 137.283 197.863ZM135.965 197.597C135.965 197.11 135.858 196.694 135.643 196.348C135.428 195.993 135.133 195.727 134.759 195.549C134.395 195.362 133.988 195.269 133.539 195.269C132.894 195.269 132.342 195.474 131.884 195.886C131.436 196.297 131.178 196.867 131.113 197.597H135.965ZM140.524 195.367V199.896C140.524 200.27 140.604 200.537 140.763 200.696C140.922 200.845 141.198 200.92 141.59 200.92H142.53V202H141.38C140.669 202 140.137 201.836 139.781 201.509C139.426 201.182 139.248 200.644 139.248 199.896V195.367H138.253V194.315H139.248V192.38H140.524V194.315H142.53V195.367H140.524ZM150.892 194.315V202H149.615V200.864C149.372 201.257 149.031 201.565 148.592 201.79C148.162 202.005 147.685 202.112 147.161 202.112C146.563 202.112 146.025 201.991 145.549 201.748C145.072 201.495 144.693 201.121 144.413 200.626C144.142 200.13 144.006 199.527 144.006 198.817V194.315H145.268V198.648C145.268 199.406 145.46 199.99 145.843 200.401C146.226 200.803 146.75 201.004 147.414 201.004C148.096 201.004 148.634 200.794 149.026 200.373C149.419 199.953 149.615 199.34 149.615 198.536V194.315H150.892ZM154.322 195.563C154.547 195.124 154.865 194.783 155.276 194.539C155.697 194.296 156.206 194.175 156.805 194.175V195.493H156.468C155.038 195.493 154.322 196.269 154.322 197.821V202H153.046V194.315H154.322V195.563Z" fill="black"/>
<circle cx="114.76" cy="75" r="75" fill="#D8D4E5"/>
<path d="M77.7605 60.7792H109.997L112.477 65.4081H80.2403L77.7605 60.7792ZM81.0668 70.037H113.304L115.783 74.6659H83.5466L81.0668 70.037ZM134.795 94.7244C137.539 94.7244 139.754 92.6568 139.754 90.0955C139.754 87.5342 137.539 85.4666 134.795 85.4666C132.051 85.4666 129.835 87.5342 129.835 90.0955C129.835 92.6568 132.051 94.7244 134.795 94.7244ZM139.754 66.9511H131.489V74.6659H146.235L139.754 66.9511ZM101.731 94.7244C104.476 94.7244 106.691 92.6568 106.691 90.0955C106.691 87.5342 104.476 85.4666 101.731 85.4666C98.9872 85.4666 96.772 87.5342 96.772 90.0955C96.772 92.6568 98.9872 94.7244 101.731 94.7244ZM141.408 62.3222L151.327 74.6659V90.0955H144.714C144.714 95.2181 140.283 99.3532 134.795 99.3532C129.306 99.3532 124.876 95.2181 124.876 90.0955H111.651C111.651 95.2181 107.187 99.3532 101.731 99.3532C96.243 99.3532 91.8125 95.2181 91.8125 90.0955H85.1998V79.2948H91.8125V83.9236H94.3253C96.1438 82.0412 98.7888 80.8377 101.731 80.8377C104.674 80.8377 107.319 82.0412 109.138 83.9236H124.876V56.1504H85.1998C85.1998 52.725 88.1424 49.9785 91.8125 49.9785H131.489V62.3222H141.408Z" fill="#010101"/>
</svg>
