<svg width="150" height="150" viewBox="0 0 150 150" fill="none" xmlns="http://www.w3.org/2000/svg">
<circle cx="75" cy="75" r="75" fill="#D8D4E5"/>
<g clip-path="url(#clip0_2514_286)">
<path d="M81.4135 44.6544C81.4135 43.9971 80.8657 43.5588 80.3179 43.5588H73.8539C72.9774 41.3676 70.8958 39.9434 68.4855 39.9434C65.1987 39.9434 62.6788 42.5728 62.6788 45.75H80.4275C80.9753 45.75 81.4135 45.3118 81.4135 44.6544ZM72.9774 51.228V47.9412H63.7744V50.3515C63.7744 52.7618 65.7465 54.7339 68.1568 54.7339H69.4715C71.4436 54.7339 72.9774 53.2001 72.9774 51.228ZM91.3834 63.2796C91.6026 63.2796 91.9312 63.3891 92.1503 63.4987L93.5746 64.7038V60.7597H89.3018V64.7038L90.7261 63.4987C90.8356 63.3891 91.0548 63.2796 91.3834 63.2796ZM66.623 56.8155L66.5134 58.5685H69.1428L69.3619 57.0347H68.0472C67.609 57.0347 67.1708 56.9251 66.623 56.8155ZM86.5628 101.406C86.5628 101.406 86.4532 101.406 86.3437 101.406H86.2341L82.9473 101.735C82.7282 101.735 82.5091 101.735 82.29 101.735C81.8517 101.625 81.4135 101.516 81.0848 101.187C80.537 100.749 80.2083 100.092 80.0988 99.4342L79.551 93.4084C79.4414 92.7511 79.3319 92.2033 79.1128 91.5459C79.0032 91.3268 78.8936 91.1077 78.7841 90.8886L74.1826 83.7672L72.3201 80.8091H66.0752C65.4178 80.8091 64.9796 80.2613 64.9796 79.7135C64.9796 79.0561 65.5274 78.6179 66.0752 78.6179H71.8818V72.0443H70.5671C70.1289 72.0443 69.6906 71.7156 69.5811 71.387C69.4715 71.2774 69.4715 71.0583 69.4715 70.9487C69.4715 70.2914 70.0193 69.8531 70.5671 69.8531H72.9774C73.087 69.8531 73.3061 69.8531 73.4157 69.9627L73.5252 70.0723C73.6348 70.0723 73.6348 70.1818 73.7443 70.1818L77.0311 73.359C77.5789 73.9068 78.3458 74.2355 79.1128 74.2355H86.5628C86.8915 74.2355 87.1106 74.126 87.3297 73.9068C87.4393 73.9068 87.4393 73.7973 87.4393 73.6877C87.5488 73.4686 87.6584 73.2495 87.6584 73.0304C87.6584 72.7017 87.5488 72.4826 87.3297 72.2634C87.1106 72.0443 86.8915 71.9348 86.5628 71.9348H80.7561C79.2223 71.9348 77.6885 71.2774 76.5929 70.2914L76.4833 70.1818C76.3738 70.0723 76.3738 70.0723 76.2642 69.9627C76.1546 69.8531 76.0451 69.7436 75.9355 69.634L75.826 69.5245C75.7164 69.3053 75.6068 69.1958 75.4973 68.9767L75.1686 68.3193L71.7723 61.8553C71.7723 61.8553 71.7723 61.7457 71.6627 61.7457C71.5531 61.6362 71.4436 61.5266 71.334 61.417C71.2245 61.3075 71.2245 61.3075 71.1149 61.1979C71.0053 61.1979 71.0053 61.0884 70.8958 61.0884C70.7862 60.9788 70.6767 60.9788 70.5671 60.9788C70.4575 60.9788 70.4575 60.8692 70.348 60.8692C70.2384 60.8692 70.1289 60.7597 70.0193 60.7597C69.9097 60.7597 69.8002 60.7597 69.6906 60.7597H69.5811H66.5134C66.1847 60.7597 65.9656 60.8692 65.6369 60.8692C65.4178 60.9788 65.1987 61.0884 65.0891 61.1979C65.0891 61.1979 65.0891 61.1979 64.9796 61.3075C64.7604 61.417 64.6509 61.5266 64.5413 61.7457C64.4318 61.8553 64.3222 62.0744 64.2126 62.184C64.2126 62.2935 64.1031 62.2935 64.1031 62.4031C63.9935 62.5126 63.9935 62.7318 63.9935 62.8413V62.9509L61.8023 82.8907L60.8163 92.2033C60.8163 92.6415 60.7067 92.9702 60.5972 93.4084C60.1589 95.0518 59.392 96.5857 58.1869 97.9004L55.4479 100.639C55.3383 100.749 55.2288 100.968 55.2288 101.187C55.2288 101.406 55.3383 101.735 55.4479 101.954L61.145 107.651C61.3641 107.87 61.8023 107.98 62.131 107.87C62.2406 107.87 62.3501 107.761 62.4597 107.651C62.5693 107.542 62.5693 107.432 62.6788 107.323C62.7884 107.103 62.7884 106.884 62.6788 106.665C62.6788 106.556 62.5693 106.446 62.5693 106.336L61.4737 104.803L61.2545 104.584C60.4876 103.488 60.4876 102.173 61.145 100.968C61.145 100.968 61.145 100.858 61.2545 100.858L63.3362 97.9004C63.4457 97.7908 63.4457 97.6813 63.5553 97.5717C63.6649 97.4622 63.6649 97.3526 63.7744 97.243C63.884 97.0239 63.9935 96.9144 63.9935 96.6952C63.9935 96.5857 64.1031 96.5857 64.1031 96.4761C64.3222 96.0379 64.4318 95.4901 64.5413 94.9423L66.2943 85.1915C66.2943 84.9724 66.5134 84.7532 66.7325 84.5341C66.8421 84.4246 67.0612 84.315 67.1708 84.315C67.2803 84.315 67.2803 84.315 67.3899 84.315H67.4994C67.609 84.315 67.8281 84.4246 67.9377 84.4246C68.0472 84.5341 68.2664 84.6437 68.3759 84.7532L69.1428 85.8488L75.3877 95.0518C76.0451 96.0379 76.4833 97.1335 76.5929 98.3386C76.5929 98.4482 76.5929 98.5577 76.5929 98.6673L77.2502 104.803C77.2502 104.912 77.2502 104.912 77.3598 104.912C77.3598 104.912 77.3598 104.912 77.3598 105.022L77.4694 105.131C77.5789 105.131 77.6885 105.241 77.798 105.131L80.4275 104.145L86.5628 101.845C86.6724 101.845 86.6724 101.735 86.7819 101.735C86.7819 101.625 86.8915 101.625 86.8915 101.516C86.8915 101.297 86.7819 101.297 86.7819 101.187C86.6724 101.406 86.6724 101.406 86.5628 101.406Z" fill="#010101"/>
<path d="M100.477 60.7598H95.7659V67.1142C95.7659 67.5525 95.5468 67.9907 95.1085 68.1003C94.999 68.2098 94.7798 68.2098 94.6703 68.2098C94.4512 68.2098 94.1225 68.1003 93.9034 67.9907L91.3835 65.9091L88.8636 67.9907C88.5349 68.3194 88.0967 68.3194 87.6585 68.1003C87.2202 67.8811 87.0011 67.5525 87.0011 67.1142V60.7598H82.29C81.0849 60.7598 80.0989 61.7458 80.0989 62.951V69.5245C80.318 69.6341 80.6466 69.6341 80.8658 69.6341H86.6724C87.5489 69.6341 88.4254 69.9628 89.0827 70.6201C89.7401 71.2775 90.0688 72.0444 90.0688 73.0304C90.0688 73.9069 89.7401 74.7834 89.0827 75.4408C88.9732 75.5503 88.7541 75.6599 88.6445 75.7694C88.6445 75.7694 88.6445 75.7694 88.5349 75.879C88.4254 75.9886 88.3158 75.9886 88.2063 76.0981C88.0967 76.0981 88.0967 76.2077 87.9871 76.2077C87.8776 76.2077 87.8776 76.2077 87.768 76.3172C87.4393 76.4268 87.1107 76.5364 86.6724 76.5364H80.318V78.2893C80.6466 79.1658 81.4136 79.604 82.3996 79.604H100.586C101.792 79.604 102.778 78.618 102.778 77.4128V62.951C102.668 61.7458 101.682 60.7598 100.477 60.7598ZM105.626 107.87H44.492C43.8346 107.87 43.3964 108.418 43.3964 108.966C43.3964 109.514 43.9442 110.062 44.492 110.062H105.736C106.393 110.062 106.831 109.514 106.831 108.966C106.831 108.418 106.284 107.87 105.626 107.87Z" fill="#010101"/>
</g>
<defs>
<clipPath id="clip0_2514_286">
<rect width="70.1181" height="70.1181" fill="white" transform="translate(40 39.9434)"/>
</clipPath>
</defs>
</svg>
