<svg width="269" height="180" viewBox="0 0 269 180" fill="none" xmlns="http://www.w3.org/2000/svg">
<circle cx="75.5209" cy="105" r="75" fill="#D8D4E5"/>
<g clip-path="url(#clip0_2605_209)">
<path d="M101.556 88.3506C103.563 88.3506 105.189 90.1293 105.189 92.324C105.189 94.5173 103.562 96.2974 101.556 96.2974H100.345L99.1828 92.324L100.345 88.3506H101.556ZM100.345 104.244V109.542L92.5953 110.778L83.3922 109.542C83.3922 107.772 83.3922 106.011 83.3922 104.244L90.7224 101.906L100.345 104.244Z" fill="white"/>
<path d="M100.345 109.542H83.3922V116.164H100.345V109.542Z" fill="#9E93BE"/>
<path d="M70.0716 88.3506L60.7232 89.781L51.9076 88.3506C51.9076 86.786 51.9076 78.9846 51.9076 77.7549H60.3841C65.734 77.7549 70.0716 82.4991 70.0716 88.3506Z" fill="white"/>
<path d="M83.3922 88.3506L84.587 92.324L83.3922 96.2974C81.6109 96.2974 51.1765 96.2974 49.4859 96.2974C47.4794 96.2974 45.8531 94.5186 45.8531 92.324C45.8531 90.1307 47.4806 88.3506 49.4859 88.3506C55.924 88.3506 76.4723 88.3506 83.3922 88.3506Z" fill="white"/>
<path d="M100.345 104.243H83.3922C83.3922 101.723 83.3922 87.2879 83.3922 84.3765H100.345C100.345 86.9169 100.345 102.09 100.345 104.243Z" fill="#9E93BE"/>
<path d="M101.556 87.0259V84.377C101.556 83.6455 101.014 83.0525 100.345 83.0525H83.3922C82.7234 83.0525 82.1812 83.6455 82.1812 84.377V87.0259H71.2151C70.6108 81.0741 65.9844 76.4302 60.3843 76.4302H53.1187V73.7812H57.9625C58.6313 73.7812 59.1734 73.1883 59.1734 72.4568C59.1734 71.7253 58.6313 71.1323 57.9625 71.1323H51.9078C51.239 71.1323 50.6968 71.7253 50.6968 72.4568C50.6968 74.461 50.6968 85.0057 50.6968 87.0259H49.4859C46.8151 87.0259 44.6422 89.4025 44.6422 92.3237C44.6422 95.245 46.8151 97.6216 49.4859 97.6216H53.8705L73.6947 116.826L53.8705 136.031H51.9078C51.239 136.031 50.6968 136.624 50.6968 137.355C50.6968 138.087 51.239 138.68 51.9078 138.68H54.3297C54.6255 138.68 54.911 138.561 55.1325 138.347L75.5211 118.596L95.9096 138.347C96.1311 138.562 96.4168 138.68 96.7125 138.68H99.1343C99.8031 138.68 100.345 138.087 100.345 137.355C100.345 136.624 99.8031 136.031 99.1343 136.031H97.1717L77.3475 116.826L82.1812 112.144V116.164C82.1812 116.896 82.7234 117.489 83.3922 117.489H100.345C101.014 117.489 101.556 116.896 101.556 116.164C101.556 112.306 101.556 101.48 101.556 97.6216C104.227 97.6216 106.4 95.245 106.4 92.3237C106.4 89.4025 104.227 87.0259 101.556 87.0259ZM84.6031 85.7014H99.1343V102.919H84.6031V85.7014ZM99.1343 108.217H84.6031V105.568H99.1343V108.217ZM53.1187 79.0791H60.3843C64.6472 79.0791 68.1853 82.5389 68.7747 87.0259H53.1187V79.0791ZM47.064 92.3237C47.064 90.8631 48.1505 89.6748 49.4859 89.6748C51.9202 89.6748 80.6083 89.6748 82.1812 89.6748V94.9727H49.4859C48.1505 94.9727 47.064 93.7843 47.064 92.3237ZM57.5231 97.6216H82.1812C82.1812 99.4362 82.1812 105.923 82.1812 108.605L75.5212 115.057L57.5231 97.6216ZM84.6031 114.84V110.866H99.1343V114.84H84.6031ZM101.556 94.9727V89.6748C102.892 89.6748 103.978 90.8631 103.978 92.3237C103.978 93.7843 102.892 94.9727 101.556 94.9727Z" fill="black"/>
</g>
<path d="M177 29.4118C177.152 28.1711 177.076 26.8813 177.511 25.7014C178.135 24.0089 178.893 22.2952 180.008 20.7663C186.994 11.185 197.241 4.14755 210.997 1.2398C225.035 -1.72741 238.299 0.632409 249.355 8.30881C254.891 12.1529 259.198 16.7554 262.423 21.9289C263.006 22.8645 263.62 23.789 264.606 25.3182C265.846 23.1789 266.792 21.5469 267.738 19.9151C268.044 19.9656 268.35 20.0162 268.657 20.0668C268.777 20.5721 269.048 21.0872 268.993 21.581C268.704 24.1622 268.362 26.7406 267.98 29.3149C267.735 30.9697 267.464 32.75 265.139 33.4692C262.639 34.2424 260.539 33.197 258.923 31.8968C256.701 30.1093 254.688 28.1595 252.762 26.1795C252.364 25.7712 252.74 24.9247 252.759 24.2801C253.599 24.2994 254.684 24.0695 255.234 24.3842C256.946 25.3623 258.455 26.547 260.076 27.675C260.196 27.4664 260.345 27.3355 260.307 27.2548C252.829 11.0991 237.414 1.48096 215.487 3.13243C214.419 3.21281 213.342 3.38072 212.32 3.62989C197.59 7.22182 186.712 14.2469 180.055 24.9435C179.17 26.3647 178.819 27.9791 178.221 29.504C177.814 29.4733 177.407 29.4425 177 29.4118Z" fill="#3D277D"/>
<defs>
<clipPath id="clip0_2605_209">
<rect width="62" height="67.8125" fill="white" transform="translate(44.5209 71)"/>
</clipPath>
</defs>
</svg>
