<svg width="308" height="238" viewBox="0 0 308 238" fill="none" xmlns="http://www.w3.org/2000/svg">
<path d="M22.12 211.098C21.4749 211.098 20.8952 210.986 20.381 210.762C19.8762 210.528 19.4788 210.21 19.189 209.808C18.8992 209.397 18.7496 208.925 18.7403 208.392H20.1005C20.1473 208.85 20.3343 209.238 20.6615 209.556C20.9981 209.864 21.4842 210.018 22.12 210.018C22.7276 210.018 23.2044 209.869 23.5504 209.57C23.9056 209.261 24.0833 208.868 24.0833 208.392C24.0833 208.018 23.9804 207.714 23.7747 207.48C23.5691 207.246 23.312 207.069 23.0034 206.947C22.6949 206.826 22.2789 206.695 21.7553 206.555C21.1103 206.386 20.5914 206.218 20.1987 206.05C19.8154 205.881 19.4835 205.62 19.203 205.264C18.9319 204.9 18.7964 204.414 18.7964 203.806C18.7964 203.273 18.9319 202.801 19.203 202.389C19.4742 201.978 19.8528 201.66 20.339 201.436C20.8345 201.212 21.4001 201.099 22.0358 201.099C22.952 201.099 23.6999 201.328 24.2796 201.786C24.8686 202.245 25.2005 202.852 25.2753 203.61H23.8729C23.8262 203.236 23.6298 202.908 23.2839 202.628C22.938 202.338 22.4799 202.193 21.9096 202.193C21.3767 202.193 20.942 202.333 20.6054 202.614C20.2688 202.885 20.1005 203.268 20.1005 203.764C20.1005 204.119 20.1987 204.409 20.395 204.633C20.6007 204.858 20.8485 205.031 21.1383 205.152C21.4375 205.264 21.8535 205.395 22.3864 205.545C23.0315 205.722 23.5504 205.9 23.943 206.078C24.3357 206.246 24.6723 206.512 24.9527 206.877C25.2332 207.232 25.3734 207.718 25.3734 208.336C25.3734 208.812 25.2472 209.261 24.9948 209.682C24.7424 210.102 24.3684 210.444 23.8729 210.706C23.3774 210.967 22.7931 211.098 22.12 211.098ZM30.603 211.126C29.8832 211.126 29.2287 210.963 28.6397 210.635C28.0601 210.308 27.602 209.845 27.2654 209.247C26.9382 208.639 26.7746 207.938 26.7746 207.144C26.7746 206.358 26.9429 205.666 27.2794 205.068C27.6254 204.46 28.0928 203.998 28.6818 203.68C29.2708 203.352 29.9299 203.189 30.6591 203.189C31.3884 203.189 32.0475 203.352 32.6365 203.68C33.2255 203.998 33.6882 204.456 34.0248 205.054C34.3707 205.652 34.5437 206.349 34.5437 207.144C34.5437 207.938 34.3661 208.639 34.0108 209.247C33.6649 209.845 33.1927 210.308 32.5944 210.635C31.9961 210.963 31.3323 211.126 30.603 211.126ZM30.603 210.004C31.0612 210.004 31.4912 209.897 31.8932 209.682C32.2952 209.467 32.6178 209.144 32.8608 208.714C33.1133 208.284 33.2395 207.761 33.2395 207.144C33.2395 206.526 33.1179 206.003 32.8749 205.573C32.6318 205.143 32.3139 204.825 31.9213 204.619C31.5286 204.404 31.1032 204.297 30.6451 204.297C30.1777 204.297 29.7476 204.404 29.3549 204.619C28.9716 204.825 28.6631 205.143 28.4294 205.573C28.1957 206.003 28.0788 206.526 28.0788 207.144C28.0788 207.77 28.191 208.298 28.4154 208.728C28.6491 209.158 28.9576 209.481 29.3409 209.696C29.7242 209.901 30.1449 210.004 30.603 210.004ZM37.4977 204.563C37.7221 204.124 38.04 203.783 38.4513 203.539C38.8721 203.296 39.3816 203.175 39.9799 203.175V204.493H39.6434C38.2129 204.493 37.4977 205.269 37.4977 206.821V211H36.2216V203.315H37.4977V204.563ZM48.4649 206.863C48.4649 207.106 48.4509 207.363 48.4228 207.634H42.2805C42.3272 208.392 42.5843 208.985 43.0518 209.415C43.5286 209.836 44.1035 210.046 44.7767 210.046C45.3283 210.046 45.7864 209.92 46.151 209.668C46.5249 209.406 46.7867 209.06 46.9363 208.63H48.3106C48.1049 209.369 47.6936 209.972 47.0765 210.439C46.4595 210.897 45.6929 211.126 44.7767 211.126C44.0474 211.126 43.393 210.963 42.8134 210.635C42.2431 210.308 41.7943 209.845 41.4671 209.247C41.1399 208.639 40.9763 207.938 40.9763 207.144C40.9763 206.349 41.1352 205.652 41.4531 205.054C41.7709 204.456 42.215 203.998 42.7853 203.68C43.3649 203.352 44.0287 203.189 44.7767 203.189C45.5059 203.189 46.151 203.348 46.7119 203.666C47.2729 203.984 47.7029 204.423 48.0021 204.984C48.3106 205.535 48.4649 206.162 48.4649 206.863ZM47.1467 206.597C47.1467 206.11 47.0391 205.694 46.8241 205.348C46.6091 204.993 46.3146 204.727 45.9406 204.549C45.576 204.362 45.1693 204.269 44.7206 204.269C44.0755 204.269 43.5239 204.474 43.0658 204.886C42.617 205.297 42.3599 205.867 42.2945 206.597H47.1467ZM59.3909 203.175C59.9893 203.175 60.5222 203.301 60.9896 203.553C61.4571 203.797 61.8264 204.166 62.0975 204.661C62.3686 205.157 62.5042 205.76 62.5042 206.47V211H61.242V206.653C61.242 205.886 61.0504 205.302 60.6671 204.9C60.2931 204.488 59.7836 204.283 59.1385 204.283C58.4747 204.283 57.9465 204.498 57.5538 204.928C57.1612 205.348 56.9648 205.961 56.9648 206.765V211H55.7027V206.653C55.7027 205.886 55.5111 205.302 55.1277 204.9C54.7538 204.488 54.2443 204.283 53.5992 204.283C52.9354 204.283 52.4072 204.498 52.0145 204.928C51.6218 205.348 51.4255 205.961 51.4255 206.765V211H50.1494V203.315H51.4255V204.423C51.6779 204.021 52.0145 203.712 52.4352 203.497C52.8653 203.282 53.3374 203.175 53.8516 203.175C54.4967 203.175 55.067 203.32 55.5625 203.61C56.058 203.899 56.4273 204.325 56.6703 204.886C56.8854 204.343 57.2406 203.923 57.7361 203.624C58.2316 203.324 58.7832 203.175 59.3909 203.175ZM68.9954 202.067C68.7523 202.067 68.5466 201.983 68.3783 201.815C68.21 201.646 68.1259 201.441 68.1259 201.197C68.1259 200.954 68.21 200.749 68.3783 200.58C68.5466 200.412 68.7523 200.328 68.9954 200.328C69.2291 200.328 69.4254 200.412 69.5844 200.58C69.7526 200.749 69.8368 200.954 69.8368 201.197C69.8368 201.441 69.7526 201.646 69.5844 201.815C69.4254 201.983 69.2291 202.067 68.9954 202.067ZM69.6124 203.315V211H68.3363V203.315H69.6124ZM73.0635 204.731C73.316 204.292 73.6899 203.927 74.1854 203.638C74.6903 203.338 75.2746 203.189 75.9384 203.189C76.6209 203.189 77.2379 203.352 77.7895 203.68C78.3504 204.007 78.7899 204.47 79.1077 205.068C79.4256 205.657 79.5845 206.344 79.5845 207.129C79.5845 207.905 79.4256 208.597 79.1077 209.205C78.7899 209.813 78.3504 210.285 77.7895 210.621C77.2379 210.958 76.6209 211.126 75.9384 211.126C75.2839 211.126 74.7043 210.981 74.1994 210.691C73.7039 210.392 73.3253 210.023 73.0635 209.584V214.646H71.7874V203.315H73.0635V204.731ZM78.2803 207.129C78.2803 206.55 78.1635 206.045 77.9297 205.615C77.696 205.185 77.3781 204.858 76.9761 204.633C76.5835 204.409 76.1487 204.297 75.6719 204.297C75.2045 204.297 74.7697 204.414 74.3677 204.647C73.9751 204.872 73.6572 205.204 73.4141 205.643C73.1804 206.073 73.0635 206.573 73.0635 207.144C73.0635 207.723 73.1804 208.233 73.4141 208.672C73.6572 209.102 73.9751 209.434 74.3677 209.668C74.7697 209.892 75.2045 210.004 75.6719 210.004C76.1487 210.004 76.5835 209.892 76.9761 209.668C77.3781 209.434 77.696 209.102 77.9297 208.672C78.1635 208.233 78.2803 207.718 78.2803 207.129ZM83.9849 211.126C83.3959 211.126 82.8677 211.028 82.4002 210.832C81.9327 210.626 81.5635 210.346 81.2923 209.99C81.0212 209.626 80.8716 209.21 80.8436 208.742H82.1618C82.1992 209.126 82.3768 209.439 82.6947 209.682C83.0219 209.925 83.4473 210.046 83.9708 210.046C84.457 210.046 84.8403 209.939 85.1208 209.724C85.4013 209.509 85.5415 209.238 85.5415 208.91C85.5415 208.574 85.3919 208.326 85.0927 208.167C84.7936 207.999 84.3308 207.835 83.7044 207.676C83.1341 207.527 82.6666 207.377 82.302 207.228C81.9468 207.069 81.6382 206.84 81.3765 206.54C81.124 206.232 80.9978 205.83 80.9978 205.334C80.9978 204.942 81.1147 204.582 81.3484 204.255C81.5822 203.927 81.914 203.67 82.3441 203.483C82.7742 203.287 83.265 203.189 83.8166 203.189C84.6674 203.189 85.3545 203.404 85.8781 203.834C86.4016 204.264 86.6821 204.853 86.7195 205.601H85.4433C85.4153 205.199 85.2517 204.876 84.9525 204.633C84.6627 204.39 84.27 204.269 83.7745 204.269C83.3164 204.269 82.9518 204.367 82.6807 204.563C82.4095 204.759 82.274 205.017 82.274 205.334C82.274 205.587 82.3535 205.797 82.5124 205.966C82.6807 206.124 82.8863 206.255 83.1294 206.358C83.3819 206.452 83.7278 206.559 84.1672 206.681C84.7188 206.83 85.1675 206.98 85.5134 207.129C85.8594 207.27 86.1539 207.485 86.3969 207.775C86.6494 208.064 86.7802 208.443 86.7896 208.91C86.7896 209.331 86.6727 209.71 86.439 210.046C86.2053 210.383 85.8734 210.649 85.4433 210.846C85.0226 211.033 84.5365 211.126 83.9849 211.126ZM95.4066 203.315V211H94.1304V209.864C93.8873 210.257 93.5461 210.565 93.1067 210.79C92.6766 211.005 92.1998 211.112 91.6763 211.112C91.0779 211.112 90.5404 210.991 90.0636 210.748C89.5868 210.495 89.2081 210.121 88.9277 209.626C88.6565 209.13 88.521 208.527 88.521 207.817V203.315H89.7831V207.648C89.7831 208.406 89.9748 208.99 90.3581 209.401C90.7414 209.803 91.2649 210.004 91.9287 210.004C92.6112 210.004 93.1488 209.794 93.5414 209.373C93.9341 208.953 94.1304 208.34 94.1304 207.536V203.315H95.4066ZM106.803 203.175C107.401 203.175 107.934 203.301 108.402 203.553C108.869 203.797 109.238 204.166 109.509 204.661C109.781 205.157 109.916 205.76 109.916 206.47V211H108.654V206.653C108.654 205.886 108.462 205.302 108.079 204.9C107.705 204.488 107.196 204.283 106.55 204.283C105.887 204.283 105.358 204.498 104.966 204.928C104.573 205.348 104.377 205.961 104.377 206.765V211H103.115V206.653C103.115 205.886 102.923 205.302 102.54 204.9C102.166 204.488 101.656 204.283 101.011 204.283C100.347 204.283 99.8191 204.498 99.4264 204.928C99.0338 205.348 98.8374 205.961 98.8374 206.765V211H97.5613V203.315H98.8374V204.423C99.0899 204.021 99.4264 203.712 99.8471 203.497C100.277 203.282 100.749 203.175 101.264 203.175C101.909 203.175 102.479 203.32 102.974 203.61C103.47 203.899 103.839 204.325 104.082 204.886C104.297 204.343 104.653 203.923 105.148 203.624C105.644 203.324 106.195 203.175 106.803 203.175ZM115.271 207.129C115.271 206.344 115.43 205.657 115.748 205.068C116.066 204.47 116.501 204.007 117.052 203.68C117.613 203.352 118.24 203.189 118.932 203.189C119.53 203.189 120.086 203.329 120.6 203.61C121.115 203.881 121.507 204.241 121.778 204.689V200.623H123.069V211H121.778V209.556C121.526 210.014 121.152 210.392 120.656 210.691C120.161 210.981 119.581 211.126 118.918 211.126C118.235 211.126 117.613 210.958 117.052 210.621C116.501 210.285 116.066 209.813 115.748 209.205C115.43 208.597 115.271 207.905 115.271 207.129ZM121.778 207.144C121.778 206.564 121.661 206.059 121.428 205.629C121.194 205.199 120.876 204.872 120.474 204.647C120.081 204.414 119.647 204.297 119.17 204.297C118.693 204.297 118.258 204.409 117.866 204.633C117.473 204.858 117.16 205.185 116.926 205.615C116.692 206.045 116.576 206.55 116.576 207.129C116.576 207.718 116.692 208.233 116.926 208.672C117.16 209.102 117.473 209.434 117.866 209.668C118.258 209.892 118.693 210.004 119.17 210.004C119.647 210.004 120.081 209.892 120.474 209.668C120.876 209.434 121.194 209.102 121.428 208.672C121.661 208.233 121.778 207.723 121.778 207.144ZM128.577 211.126C127.857 211.126 127.202 210.963 126.613 210.635C126.034 210.308 125.576 209.845 125.239 209.247C124.912 208.639 124.748 207.938 124.748 207.144C124.748 206.358 124.917 205.666 125.253 205.068C125.599 204.46 126.067 203.998 126.655 203.68C127.244 203.352 127.904 203.189 128.633 203.189C129.362 203.189 130.021 203.352 130.61 203.68C131.199 203.998 131.662 204.456 131.998 205.054C132.344 205.652 132.517 206.349 132.517 207.144C132.517 207.938 132.34 208.639 131.984 209.247C131.639 209.845 131.166 210.308 130.568 210.635C129.97 210.963 129.306 211.126 128.577 211.126ZM128.577 210.004C129.035 210.004 129.465 209.897 129.867 209.682C130.269 209.467 130.591 209.144 130.835 208.714C131.087 208.284 131.213 207.761 131.213 207.144C131.213 206.526 131.092 206.003 130.849 205.573C130.605 205.143 130.288 204.825 129.895 204.619C129.502 204.404 129.077 204.297 128.619 204.297C128.151 204.297 127.721 204.404 127.329 204.619C126.945 204.825 126.637 205.143 126.403 205.573C126.169 206.003 126.052 206.526 126.052 207.144C126.052 207.77 126.165 208.298 126.389 208.728C126.623 209.158 126.931 209.481 127.315 209.696C127.698 209.901 128.119 210.004 128.577 210.004ZM135.471 200.623V211H134.195V200.623H135.471ZM140.998 211.126C140.278 211.126 139.624 210.963 139.035 210.635C138.455 210.308 137.997 209.845 137.66 209.247C137.333 208.639 137.17 207.938 137.17 207.144C137.17 206.358 137.338 205.666 137.674 205.068C138.02 204.46 138.488 203.998 139.077 203.68C139.666 203.352 140.325 203.189 141.054 203.189C141.783 203.189 142.442 203.352 143.031 203.68C143.62 203.998 144.083 204.456 144.42 205.054C144.766 205.652 144.939 206.349 144.939 207.144C144.939 207.938 144.761 208.639 144.406 209.247C144.06 209.845 143.588 210.308 142.989 210.635C142.391 210.963 141.727 211.126 140.998 211.126ZM140.998 210.004C141.456 210.004 141.886 209.897 142.288 209.682C142.69 209.467 143.013 209.144 143.256 208.714C143.508 208.284 143.634 207.761 143.634 207.144C143.634 206.526 143.513 206.003 143.27 205.573C143.027 205.143 142.709 204.825 142.316 204.619C141.924 204.404 141.498 204.297 141.04 204.297C140.573 204.297 140.143 204.404 139.75 204.619C139.367 204.825 139.058 205.143 138.824 205.573C138.591 206.003 138.474 206.526 138.474 207.144C138.474 207.77 138.586 208.298 138.81 208.728C139.044 209.158 139.353 209.481 139.736 209.696C140.119 209.901 140.54 210.004 140.998 210.004ZM147.893 204.563C148.117 204.124 148.435 203.783 148.846 203.539C149.267 203.296 149.777 203.175 150.375 203.175V204.493H150.038C148.608 204.493 147.893 205.269 147.893 206.821V211H146.617V203.315H147.893V204.563ZM158.307 211.126C157.718 211.126 157.19 211.028 156.723 210.832C156.255 210.626 155.886 210.346 155.615 209.99C155.344 209.626 155.194 209.21 155.166 208.742H156.484C156.522 209.126 156.699 209.439 157.017 209.682C157.344 209.925 157.77 210.046 158.293 210.046C158.78 210.046 159.163 209.939 159.443 209.724C159.724 209.509 159.864 209.238 159.864 208.91C159.864 208.574 159.714 208.326 159.415 208.167C159.116 207.999 158.653 207.835 158.027 207.676C157.457 207.527 156.989 207.377 156.625 207.228C156.269 207.069 155.961 206.84 155.699 206.54C155.447 206.232 155.32 205.83 155.32 205.334C155.32 204.942 155.437 204.582 155.671 204.255C155.905 203.927 156.237 203.67 156.667 203.483C157.097 203.287 157.588 203.189 158.139 203.189C158.99 203.189 159.677 203.404 160.201 203.834C160.724 204.264 161.005 204.853 161.042 205.601H159.766C159.738 205.199 159.574 204.876 159.275 204.633C158.985 204.39 158.593 204.269 158.097 204.269C157.639 204.269 157.274 204.367 157.003 204.563C156.732 204.759 156.597 205.017 156.597 205.334C156.597 205.587 156.676 205.797 156.835 205.966C157.003 206.124 157.209 206.255 157.452 206.358C157.704 206.452 158.05 206.559 158.49 206.681C159.041 206.83 159.49 206.98 159.836 207.129C160.182 207.27 160.476 207.485 160.719 207.775C160.972 208.064 161.103 208.443 161.112 208.91C161.112 209.331 160.995 209.71 160.762 210.046C160.528 210.383 160.196 210.649 159.766 210.846C159.345 211.033 158.859 211.126 158.307 211.126ZM163.573 202.067C163.33 202.067 163.124 201.983 162.956 201.815C162.787 201.646 162.703 201.441 162.703 201.197C162.703 200.954 162.787 200.749 162.956 200.58C163.124 200.412 163.33 200.328 163.573 200.328C163.806 200.328 164.003 200.412 164.162 200.58C164.33 200.749 164.414 200.954 164.414 201.197C164.414 201.441 164.33 201.646 164.162 201.815C164.003 201.983 163.806 202.067 163.573 202.067ZM164.19 203.315V211H162.914V203.315H164.19ZM167.921 204.367V208.896C167.921 209.27 168.001 209.537 168.16 209.696C168.319 209.845 168.594 209.92 168.987 209.92H169.927V211H168.777C168.066 211 167.533 210.836 167.178 210.509C166.823 210.182 166.645 209.644 166.645 208.896V204.367H165.65V203.315H166.645V201.38H167.921V203.315H169.927V204.367H167.921ZM174.735 207.129C174.735 206.344 174.894 205.657 175.212 205.068C175.53 204.47 175.964 204.007 176.516 203.68C177.077 203.352 177.699 203.189 178.381 203.189C179.054 203.189 179.638 203.334 180.134 203.624C180.629 203.913 180.999 204.278 181.242 204.717V203.315H182.532V211H181.242V209.57C180.989 210.018 180.611 210.392 180.106 210.691C179.61 210.981 179.031 211.126 178.367 211.126C177.684 211.126 177.067 210.958 176.516 210.621C175.964 210.285 175.53 209.813 175.212 209.205C174.894 208.597 174.735 207.905 174.735 207.129ZM181.242 207.144C181.242 206.564 181.125 206.059 180.891 205.629C180.657 205.199 180.34 204.872 179.938 204.647C179.545 204.414 179.11 204.297 178.633 204.297C178.157 204.297 177.722 204.409 177.329 204.633C176.937 204.858 176.623 205.185 176.39 205.615C176.156 206.045 176.039 206.55 176.039 207.129C176.039 207.718 176.156 208.233 176.39 208.672C176.623 209.102 176.937 209.434 177.329 209.668C177.722 209.892 178.157 210.004 178.633 210.004C179.11 210.004 179.545 209.892 179.938 209.668C180.34 209.434 180.657 209.102 180.891 208.672C181.125 208.233 181.242 207.723 181.242 207.144ZM193.93 203.175C194.528 203.175 195.061 203.301 195.529 203.553C195.996 203.797 196.366 204.166 196.637 204.661C196.908 205.157 197.043 205.76 197.043 206.47V211H195.781V206.653C195.781 205.886 195.59 205.302 195.206 204.9C194.832 204.488 194.323 204.283 193.678 204.283C193.014 204.283 192.486 204.498 192.093 204.928C191.7 205.348 191.504 205.961 191.504 206.765V211H190.242V206.653C190.242 205.886 190.05 205.302 189.667 204.9C189.293 204.488 188.783 204.283 188.138 204.283C187.475 204.283 186.946 204.498 186.554 204.928C186.161 205.348 185.965 205.961 185.965 206.765V211H184.689V203.315H185.965V204.423C186.217 204.021 186.554 203.712 186.974 203.497C187.404 203.282 187.877 203.175 188.391 203.175C189.036 203.175 189.606 203.32 190.102 203.61C190.597 203.899 190.966 204.325 191.21 204.886C191.425 204.343 191.78 203.923 192.275 203.624C192.771 203.324 193.322 203.175 193.93 203.175ZM206.149 206.863C206.149 207.106 206.135 207.363 206.106 207.634H199.964C200.011 208.392 200.268 208.985 200.735 209.415C201.212 209.836 201.787 210.046 202.46 210.046C203.012 210.046 203.47 209.92 203.835 209.668C204.209 209.406 204.47 209.06 204.62 208.63H205.994C205.789 209.369 205.377 209.972 204.76 210.439C204.143 210.897 203.377 211.126 202.46 211.126C201.731 211.126 201.077 210.963 200.497 210.635C199.927 210.308 199.478 209.845 199.151 209.247C198.824 208.639 198.66 207.938 198.66 207.144C198.66 206.349 198.819 205.652 199.137 205.054C199.455 204.456 199.899 203.998 200.469 203.68C201.049 203.352 201.712 203.189 202.46 203.189C203.19 203.189 203.835 203.348 204.396 203.666C204.957 203.984 205.387 204.423 205.686 204.984C205.994 205.535 206.149 206.162 206.149 206.863ZM204.83 206.597C204.83 206.11 204.723 205.694 204.508 205.348C204.293 204.993 203.998 204.727 203.624 204.549C203.26 204.362 202.853 204.269 202.404 204.269C201.759 204.269 201.208 204.474 200.749 204.886C200.301 205.297 200.044 205.867 199.978 206.597H204.83ZM209.39 204.367V208.896C209.39 209.27 209.469 209.537 209.628 209.696C209.787 209.845 210.063 209.92 210.455 209.92H211.395V211H210.245C209.535 211 209.002 210.836 208.646 210.509C208.291 210.182 208.113 209.644 208.113 208.896V204.367H207.118V203.315H208.113V201.38H209.39V203.315H211.395V204.367H209.39ZM73.447 228.144C73.447 227.349 73.6059 226.657 73.9238 226.068C74.2417 225.47 74.6811 225.007 75.242 224.68C75.8123 224.352 76.4621 224.189 77.1913 224.189C78.1356 224.189 78.9115 224.418 79.5192 224.876C80.1363 225.334 80.5429 225.97 80.7393 226.783H79.365C79.2341 226.316 78.977 225.946 78.5937 225.675C78.2197 225.404 77.7522 225.269 77.1913 225.269C76.4621 225.269 75.8731 225.521 75.4243 226.026C74.9756 226.521 74.7512 227.227 74.7512 228.144C74.7512 229.069 74.9756 229.784 75.4243 230.289C75.8731 230.794 76.4621 231.046 77.1913 231.046C77.7522 231.046 78.2197 230.916 78.5937 230.654C78.9676 230.392 79.2247 230.018 79.365 229.532H80.7393C80.5336 230.317 80.1222 230.948 79.5052 231.425C78.8882 231.892 78.1169 232.126 77.1913 232.126C76.4621 232.126 75.8123 231.963 75.242 231.635C74.6811 231.308 74.2417 230.845 73.9238 230.247C73.6059 229.649 73.447 228.948 73.447 228.144ZM85.7937 232.126C85.0738 232.126 84.4194 231.963 83.8304 231.635C83.2507 231.308 82.7926 230.845 82.4561 230.247C82.1289 229.639 81.9652 228.938 81.9652 228.144C81.9652 227.358 82.1335 226.666 82.4701 226.068C82.816 225.46 83.2835 224.998 83.8725 224.68C84.4615 224.352 85.1206 224.189 85.8498 224.189C86.579 224.189 87.2381 224.352 87.8271 224.68C88.4161 224.998 88.8789 225.456 89.2155 226.054C89.5614 226.652 89.7343 227.349 89.7343 228.144C89.7343 228.938 89.5567 229.639 89.2014 230.247C88.8555 230.845 88.3834 231.308 87.7851 231.635C87.1867 231.963 86.5229 232.126 85.7937 232.126ZM85.7937 231.004C86.2518 231.004 86.6819 230.897 87.0839 230.682C87.4859 230.467 87.8084 230.144 88.0515 229.714C88.3039 229.284 88.4301 228.761 88.4301 228.144C88.4301 227.526 88.3086 227.003 88.0655 226.573C87.8224 226.143 87.5046 225.825 87.1119 225.619C86.7193 225.404 86.2939 225.297 85.8358 225.297C85.3683 225.297 84.9383 225.404 84.5456 225.619C84.1623 225.825 83.8538 226.143 83.62 226.573C83.3863 227.003 83.2694 227.526 83.2694 228.144C83.2694 228.77 83.3816 229.298 83.606 229.728C83.8397 230.158 84.1483 230.481 84.5316 230.696C84.9149 230.901 85.3356 231.004 85.7937 231.004ZM95.1566 224.175C96.0915 224.175 96.8487 224.46 97.4284 225.03C98.008 225.591 98.2979 226.405 98.2979 227.47V232H97.0357V227.653C97.0357 226.886 96.8441 226.302 96.4608 225.9C96.0774 225.488 95.5539 225.283 94.8901 225.283C94.217 225.283 93.6794 225.493 93.2774 225.914C92.8847 226.334 92.6884 226.947 92.6884 227.751V232H91.4122V224.315H92.6884V225.409C92.9408 225.016 93.2821 224.712 93.7121 224.497C94.1515 224.282 94.633 224.175 95.1566 224.175ZM103.103 232.126C102.514 232.126 101.986 232.028 101.518 231.832C101.051 231.626 100.682 231.346 100.41 230.99C100.139 230.626 99.9898 230.21 99.9617 229.742H101.28C101.317 230.126 101.495 230.439 101.813 230.682C102.14 230.925 102.565 231.046 103.089 231.046C103.575 231.046 103.958 230.939 104.239 230.724C104.519 230.509 104.66 230.238 104.66 229.91C104.66 229.574 104.51 229.326 104.211 229.167C103.912 228.999 103.449 228.835 102.823 228.676C102.252 228.527 101.785 228.377 101.42 228.228C101.065 228.069 100.756 227.84 100.495 227.54C100.242 227.232 100.116 226.83 100.116 226.334C100.116 225.942 100.233 225.582 100.467 225.255C100.7 224.927 101.032 224.67 101.462 224.483C101.892 224.287 102.383 224.189 102.935 224.189C103.786 224.189 104.473 224.404 104.996 224.834C105.52 225.264 105.8 225.853 105.838 226.601H104.561C104.533 226.199 104.37 225.876 104.071 225.633C103.781 225.39 103.388 225.269 102.893 225.269C102.435 225.269 102.07 225.367 101.799 225.563C101.528 225.759 101.392 226.017 101.392 226.334C101.392 226.587 101.472 226.797 101.631 226.966C101.799 227.124 102.005 227.255 102.248 227.358C102.5 227.452 102.846 227.559 103.285 227.681C103.837 227.83 104.286 227.98 104.632 228.129C104.978 228.27 105.272 228.485 105.515 228.775C105.768 229.064 105.898 229.443 105.908 229.91C105.908 230.331 105.791 230.71 105.557 231.046C105.323 231.383 104.992 231.649 104.561 231.846C104.141 232.033 103.655 232.126 103.103 232.126ZM114.721 227.863C114.721 228.106 114.707 228.363 114.679 228.634H108.537C108.583 229.392 108.84 229.985 109.308 230.415C109.785 230.836 110.36 231.046 111.033 231.046C111.584 231.046 112.043 230.92 112.407 230.668C112.781 230.406 113.043 230.06 113.192 229.63H114.567C114.361 230.369 113.95 230.972 113.333 231.439C112.716 231.897 111.949 232.126 111.033 232.126C110.304 232.126 109.649 231.963 109.07 231.635C108.499 231.308 108.05 230.845 107.723 230.247C107.396 229.639 107.232 228.938 107.232 228.144C107.232 227.349 107.391 226.652 107.709 226.054C108.027 225.456 108.471 224.998 109.041 224.68C109.621 224.352 110.285 224.189 111.033 224.189C111.762 224.189 112.407 224.348 112.968 224.666C113.529 224.984 113.959 225.423 114.258 225.984C114.567 226.535 114.721 227.162 114.721 227.863ZM113.403 227.597C113.403 227.11 113.295 226.694 113.08 226.348C112.865 225.993 112.571 225.727 112.197 225.549C111.832 225.362 111.425 225.269 110.977 225.269C110.332 225.269 109.78 225.474 109.322 225.886C108.873 226.297 108.616 226.867 108.551 227.597H113.403ZM115.929 228.144C115.929 227.349 116.088 226.657 116.406 226.068C116.723 225.47 117.163 225.007 117.724 224.68C118.294 224.352 118.944 224.189 119.673 224.189C120.617 224.189 121.393 224.418 122.001 224.876C122.618 225.334 123.025 225.97 123.221 226.783H121.847C121.716 226.316 121.459 225.946 121.075 225.675C120.701 225.404 120.234 225.269 119.673 225.269C118.944 225.269 118.355 225.521 117.906 226.026C117.457 226.521 117.233 227.227 117.233 228.144C117.233 229.069 117.457 229.784 117.906 230.289C118.355 230.794 118.944 231.046 119.673 231.046C120.234 231.046 120.701 230.916 121.075 230.654C121.449 230.392 121.706 230.018 121.847 229.532H123.221C123.015 230.317 122.604 230.948 121.987 231.425C121.37 231.892 120.599 232.126 119.673 232.126C118.944 232.126 118.294 231.963 117.724 231.635C117.163 231.308 116.723 230.845 116.406 230.247C116.088 229.649 115.929 228.948 115.929 228.144ZM126.48 225.367V229.896C126.48 230.27 126.56 230.537 126.719 230.696C126.878 230.845 127.154 230.92 127.546 230.92H128.486V232H127.336C126.625 232 126.092 231.836 125.737 231.509C125.382 231.182 125.204 230.644 125.204 229.896V225.367H124.209V224.315H125.204V222.38H126.48V224.315H128.486V225.367H126.48ZM137.044 227.863C137.044 228.106 137.03 228.363 137.002 228.634H130.859C130.906 229.392 131.163 229.985 131.631 230.415C132.108 230.836 132.682 231.046 133.356 231.046C133.907 231.046 134.365 230.92 134.73 230.668C135.104 230.406 135.366 230.06 135.515 229.63H136.89C136.684 230.369 136.273 230.972 135.655 231.439C135.038 231.897 134.272 232.126 133.356 232.126C132.626 232.126 131.972 231.963 131.392 231.635C130.822 231.308 130.373 230.845 130.046 230.247C129.719 229.639 129.555 228.938 129.555 228.144C129.555 227.349 129.714 226.652 130.032 226.054C130.35 225.456 130.794 224.998 131.364 224.68C131.944 224.352 132.608 224.189 133.356 224.189C134.085 224.189 134.73 224.348 135.291 224.666C135.852 224.984 136.282 225.423 136.581 225.984C136.89 226.535 137.044 227.162 137.044 227.863ZM135.726 227.597C135.726 227.11 135.618 226.694 135.403 226.348C135.188 225.993 134.894 225.727 134.52 225.549C134.155 225.362 133.748 225.269 133.3 225.269C132.654 225.269 132.103 225.474 131.645 225.886C131.196 226.297 130.939 226.867 130.873 227.597H135.726ZM140.285 225.367V229.896C140.285 230.27 140.364 230.537 140.523 230.696C140.682 230.845 140.958 230.92 141.351 230.92H142.29V232H141.14C140.43 232 139.897 231.836 139.542 231.509C139.186 231.182 139.009 230.644 139.009 229.896V225.367H138.013V224.315H139.009V222.38H140.285V224.315H142.29V225.367H140.285ZM150.652 224.315V232H149.376V230.864C149.133 231.257 148.792 231.565 148.352 231.79C147.922 232.005 147.445 232.112 146.922 232.112C146.323 232.112 145.786 231.991 145.309 231.748C144.832 231.495 144.454 231.121 144.173 230.626C143.902 230.13 143.766 229.527 143.766 228.817V224.315H145.029V228.648C145.029 229.406 145.22 229.99 145.604 230.401C145.987 230.803 146.51 231.004 147.174 231.004C147.857 231.004 148.394 230.794 148.787 230.373C149.18 229.953 149.376 229.34 149.376 228.536V224.315H150.652ZM154.083 225.563C154.307 225.124 154.625 224.783 155.036 224.539C155.457 224.296 155.967 224.175 156.565 224.175V225.493H156.228C154.798 225.493 154.083 226.269 154.083 227.821V232H152.807V224.315H154.083V225.563Z" fill="black"/>
<circle cx="114.521" cy="105" r="75" fill="#D8D4E5"/>
<g clip-path="url(#clip0_2604_206)">
<path d="M140.556 88.3506C142.563 88.3506 144.189 90.1293 144.189 92.324C144.189 94.5173 142.562 96.2974 140.556 96.2974H139.345L138.183 92.324L139.345 88.3506H140.556ZM139.345 104.244V109.542L131.595 110.778L122.392 109.542C122.392 107.772 122.392 106.011 122.392 104.244L129.722 101.906L139.345 104.244Z" fill="white"/>
<path d="M139.345 109.542H122.392V116.164H139.345V109.542Z" fill="#9E93BE"/>
<path d="M109.072 88.3506L99.7232 89.781L90.9076 88.3506C90.9076 86.786 90.9076 78.9846 90.9076 77.7549H99.3841C104.734 77.7549 109.072 82.4991 109.072 88.3506Z" fill="white"/>
<path d="M122.392 88.3506L123.587 92.324L122.392 96.2974C120.611 96.2974 90.1765 96.2974 88.4859 96.2974C86.4794 96.2974 84.8531 94.5186 84.8531 92.324C84.8531 90.1307 86.4806 88.3506 88.4859 88.3506C94.924 88.3506 115.472 88.3506 122.392 88.3506Z" fill="white"/>
<path d="M139.345 104.243H122.392C122.392 101.723 122.392 87.2879 122.392 84.3765H139.345C139.345 86.9169 139.345 102.09 139.345 104.243Z" fill="#9E93BE"/>
<path d="M140.556 87.0259V84.377C140.556 83.6455 140.014 83.0525 139.345 83.0525H122.392C121.723 83.0525 121.181 83.6455 121.181 84.377V87.0259H110.215C109.611 81.0741 104.984 76.4302 99.3843 76.4302H92.1187V73.7812H96.9625C97.6313 73.7812 98.1734 73.1883 98.1734 72.4568C98.1734 71.7253 97.6313 71.1323 96.9625 71.1323H90.9078C90.239 71.1323 89.6968 71.7253 89.6968 72.4568C89.6968 74.461 89.6968 85.0057 89.6968 87.0259H88.4859C85.8151 87.0259 83.6422 89.4025 83.6422 92.3237C83.6422 95.245 85.8151 97.6216 88.4859 97.6216H92.8705L112.695 116.826L92.8705 136.031H90.9078C90.239 136.031 89.6968 136.624 89.6968 137.355C89.6968 138.087 90.239 138.68 90.9078 138.68H93.3297C93.6255 138.68 93.911 138.561 94.1325 138.347L114.521 118.596L134.91 138.347C135.131 138.562 135.417 138.68 135.712 138.68H138.134C138.803 138.68 139.345 138.087 139.345 137.355C139.345 136.624 138.803 136.031 138.134 136.031H136.172L116.348 116.826L121.181 112.144V116.164C121.181 116.896 121.723 117.489 122.392 117.489H139.345C140.014 117.489 140.556 116.896 140.556 116.164C140.556 112.306 140.556 101.48 140.556 97.6216C143.227 97.6216 145.4 95.245 145.4 92.3237C145.4 89.4025 143.227 87.0259 140.556 87.0259ZM123.603 85.7014H138.134V102.919H123.603V85.7014ZM138.134 108.217H123.603V105.568H138.134V108.217ZM92.1187 79.0791H99.3843C103.647 79.0791 107.185 82.5389 107.775 87.0259H92.1187V79.0791ZM86.064 92.3237C86.064 90.8631 87.1505 89.6748 88.4859 89.6748C90.9202 89.6748 119.608 89.6748 121.181 89.6748V94.9727H88.4859C87.1505 94.9727 86.064 93.7843 86.064 92.3237ZM96.5231 97.6216H121.181C121.181 99.4362 121.181 105.923 121.181 108.605L114.521 115.057L96.5231 97.6216ZM123.603 114.84V110.866H138.134V114.84H123.603ZM140.556 94.9727V89.6748C141.892 89.6748 142.978 90.8631 142.978 92.3237C142.978 93.7843 141.892 94.9727 140.556 94.9727Z" fill="black"/>
</g>
<path d="M216 29.4118C216.152 28.1711 216.076 26.8813 216.511 25.7014C217.135 24.0089 217.893 22.2952 219.008 20.7663C225.994 11.185 236.241 4.14755 249.997 1.2398C264.035 -1.72741 277.299 0.632409 288.355 8.30881C293.891 12.1529 298.198 16.7554 301.423 21.9289C302.006 22.8645 302.62 23.789 303.606 25.3182C304.846 23.1789 305.792 21.5469 306.738 19.9151C307.044 19.9656 307.35 20.0162 307.657 20.0668C307.777 20.5721 308.048 21.0872 307.993 21.581C307.704 24.1622 307.362 26.7406 306.98 29.3149C306.735 30.9697 306.464 32.75 304.139 33.4692C301.639 34.2424 299.539 33.197 297.923 31.8968C295.701 30.1093 293.688 28.1595 291.762 26.1795C291.364 25.7712 291.74 24.9247 291.759 24.2801C292.599 24.2994 293.684 24.0695 294.234 24.3842C295.946 25.3623 297.455 26.547 299.076 27.675C299.196 27.4664 299.345 27.3355 299.307 27.2548C291.829 11.0991 276.414 1.48096 254.487 3.13243C253.419 3.21281 252.342 3.38072 251.32 3.62989C236.59 7.22182 225.712 14.2469 219.055 24.9435C218.17 26.3647 217.819 27.9791 217.221 29.504C216.814 29.4733 216.407 29.4425 216 29.4118Z" fill="#3D277D"/>
<defs>
<clipPath id="clip0_2604_206">
<rect width="62" height="67.8125" fill="white" transform="translate(83.5209 71)"/>
</clipPath>
</defs>
</svg>
