<svg width="151" height="150" viewBox="0 0 151 150" fill="none" xmlns="http://www.w3.org/2000/svg">
<circle cx="75.7605" cy="75" r="75" fill="#D8D4E5"/>
<path d="M38.7605 60.7792H70.9974L73.4771 65.4081H41.2403L38.7605 60.7792ZM42.0668 70.037H74.3037L76.7835 74.6659H44.5466L42.0668 70.037ZM95.7949 94.7244C98.5392 94.7244 100.754 92.6568 100.754 90.0955C100.754 87.5342 98.5392 85.4666 95.7949 85.4666C93.0507 85.4666 90.8354 87.5342 90.8354 90.0955C90.8354 92.6568 93.0507 94.7244 95.7949 94.7244ZM100.754 66.9511H92.4886V74.6659H107.235L100.754 66.9511ZM62.7315 94.7244C65.4758 94.7244 67.691 92.6568 67.691 90.0955C67.691 87.5342 65.4758 85.4666 62.7315 85.4666C59.9872 85.4666 57.772 87.5342 57.772 90.0955C57.772 92.6568 59.9872 94.7244 62.7315 94.7244ZM102.408 62.3222L112.327 74.6659V90.0955H105.714C105.714 95.2181 101.283 99.3532 95.7949 99.3532C90.3064 99.3532 85.8759 95.2181 85.8759 90.0955H72.6505C72.6505 95.2181 68.187 99.3532 62.7315 99.3532C57.243 99.3532 52.8125 95.2181 52.8125 90.0955H46.1998V79.2948H52.8125V83.9236H55.3253C57.1438 82.0412 59.7888 80.8377 62.7315 80.8377C65.6741 80.8377 68.3192 82.0412 70.1377 83.9236H85.8759V56.1504H46.1998C46.1998 52.725 49.1424 49.9785 52.8125 49.9785H92.4886V62.3222H102.408Z" fill="#010101"/>
</svg>
