<svg width="244" height="182" viewBox="0 0 244 182" fill="none" xmlns="http://www.w3.org/2000/svg">
<circle cx="75" cy="107" r="75" fill="#D8D4E5"/>
<path d="M78.2611 120.253C78.2611 120.565 78.1439 120.865 77.9353 121.085C77.7266 121.306 77.4437 121.43 77.1486 121.43C76.8536 121.43 76.5706 121.306 76.362 121.085C76.1534 120.865 76.0362 120.565 76.0362 120.253V115.546C76.0362 115.234 76.1534 114.934 76.362 114.714C76.5706 114.493 76.8536 114.369 77.1486 114.369C77.4437 114.369 77.7266 114.493 77.9353 114.714C78.1439 114.934 78.2611 115.234 78.2611 115.546V120.253ZM82.7109 115.546C82.7109 115.234 82.5937 114.934 82.3851 114.714C82.1764 114.493 81.8935 114.369 81.5984 114.369C81.3034 114.369 81.0204 114.493 80.8118 114.714C80.6032 114.934 80.486 115.234 80.486 115.546V120.253C80.486 120.565 80.6032 120.865 80.8118 121.085C81.0204 121.306 81.3034 121.43 81.5984 121.43C81.8935 121.43 82.1764 121.306 82.3851 121.085C82.5937 120.865 82.7109 120.565 82.7109 120.253V115.546ZM84.9358 115.546V120.253C84.9358 120.565 85.053 120.865 85.2616 121.085C85.4703 121.306 85.7532 121.43 86.0483 121.43C86.3433 121.43 86.6263 121.306 86.8349 121.085C87.0435 120.865 87.1607 120.565 87.1607 120.253V115.546C87.1607 115.234 87.0435 114.934 86.8349 114.714C86.6263 114.493 86.3433 114.369 86.0483 114.369C85.7532 114.369 85.4703 114.493 85.2616 114.714C85.053 114.934 84.9358 115.234 84.9358 115.546ZM89.3856 120.253C89.3856 120.565 89.5028 120.865 89.7114 121.085C89.9201 121.306 90.203 121.43 90.4981 121.43C90.7931 121.43 91.0761 121.306 91.2847 121.085C91.4933 120.865 91.6105 120.565 91.6105 120.253V115.546C91.6105 115.234 91.4933 114.934 91.2847 114.714C91.0761 114.493 90.7931 114.369 90.4981 114.369C90.203 114.369 89.9201 114.493 89.7114 114.714C89.5028 114.934 89.3856 115.234 89.3856 115.546V120.253ZM60.4619 115.546C60.4619 115.234 60.3447 114.934 60.136 114.714C59.9274 114.493 59.6445 114.369 59.3494 114.369C59.0544 114.369 58.7714 114.493 58.5628 114.714C58.3542 114.934 58.237 115.234 58.237 115.546V120.253C58.237 120.565 58.3542 120.865 58.5628 121.085C58.7714 121.306 59.0544 121.43 59.3494 121.43C59.6445 121.43 59.9274 121.306 60.136 121.085C60.3447 120.865 60.4619 120.565 60.4619 120.253V115.546ZM64.9117 115.546C64.9117 115.234 64.7945 114.934 64.5858 114.714C64.3772 114.493 64.0943 114.369 63.7992 114.369C63.5042 114.369 63.2212 114.493 63.0126 114.714C62.804 114.934 62.6868 115.234 62.6868 115.546V120.253C62.6868 120.565 62.804 120.865 63.0126 121.085C63.2212 121.306 63.5042 121.43 63.7992 121.43C64.0943 121.43 64.3772 121.306 64.5858 121.085C64.7945 120.865 64.9117 120.565 64.9117 120.253V115.546ZM69.3615 115.546C69.3615 115.234 69.2443 114.934 69.0357 114.714C68.827 114.493 68.5441 114.369 68.249 114.369C67.954 114.369 67.671 114.493 67.4624 114.714C67.2538 114.934 67.1366 115.234 67.1366 115.546V120.253C67.1366 120.565 67.2538 120.865 67.4624 121.085C67.671 121.306 67.954 121.43 68.249 121.43C68.5441 121.43 68.827 121.306 69.0357 121.085C69.2443 120.865 69.3615 120.565 69.3615 120.253V115.546ZM73.8113 115.546C73.8113 115.234 73.6941 114.934 73.4855 114.714C73.2768 114.493 72.9939 114.369 72.6988 114.369C72.4038 114.369 72.1208 114.493 71.9122 114.714C71.7036 114.934 71.5864 115.234 71.5864 115.546V120.253C71.5864 120.565 71.7036 120.865 71.9122 121.085C72.1208 121.306 72.4038 121.43 72.6988 121.43C72.9939 121.43 73.2768 121.306 73.4855 121.085C73.6941 120.865 73.8113 120.565 73.8113 120.253V115.546ZM74.9237 109.662C75.2188 109.662 75.5017 109.538 75.7104 109.317C75.919 109.096 76.0362 108.797 76.0362 108.485V103.777C76.0362 103.465 75.919 103.166 75.7104 102.945C75.5017 102.724 75.2188 102.6 74.9237 102.6C74.6287 102.6 74.3457 102.724 74.1371 102.945C73.9285 103.166 73.8113 103.465 73.8113 103.777V108.485C73.8113 108.797 73.9285 109.096 74.1371 109.317C74.3457 109.538 74.6287 109.662 74.9237 109.662ZM79.3735 109.662C79.6686 109.662 79.9515 109.538 80.1602 109.317C80.3688 109.096 80.486 108.797 80.486 108.485V103.777C80.486 103.465 80.3688 103.166 80.1602 102.945C79.9515 102.724 79.6686 102.6 79.3735 102.6C79.0785 102.6 78.7955 102.724 78.5869 102.945C78.3783 103.166 78.2611 103.465 78.2611 103.777V108.485C78.2611 108.797 78.3783 109.096 78.5869 109.317C78.7955 109.538 79.0785 109.662 79.3735 109.662ZM83.8233 109.662C84.1184 109.662 84.4013 109.538 84.61 109.317C84.8186 109.096 84.9358 108.797 84.9358 108.485V103.777C84.9358 103.465 84.8186 103.166 84.61 102.945C84.4013 102.724 84.1184 102.6 83.8233 102.6C83.5283 102.6 83.2453 102.724 83.0367 102.945C82.8281 103.166 82.7109 103.465 82.7109 103.777V108.485C82.7109 108.797 82.8281 109.096 83.0367 109.317C83.2453 109.538 83.5283 109.662 83.8233 109.662ZM88.2732 109.662C88.5682 109.662 88.8512 109.538 89.0598 109.317C89.2684 109.096 89.3856 108.797 89.3856 108.485V103.777C89.3856 103.465 89.2684 103.166 89.0598 102.945C88.8512 102.724 88.5682 102.6 88.2732 102.6C87.9781 102.6 87.6952 102.724 87.4865 102.945C87.2779 103.166 87.1607 103.465 87.1607 103.777V108.485C87.1607 108.797 87.2779 109.096 87.4865 109.317C87.6952 109.538 87.9781 109.662 88.2732 109.662ZM92.723 109.662C93.018 109.662 93.301 109.538 93.5096 109.317C93.7182 109.096 93.8354 108.797 93.8354 108.485V103.777C93.8354 103.465 93.7182 103.166 93.5096 102.945C93.301 102.724 93.018 102.6 92.723 102.6C92.4279 102.6 92.145 102.724 91.9363 102.945C91.7277 103.166 91.6105 103.465 91.6105 103.777V108.485C91.6105 108.797 91.7277 109.096 91.9363 109.317C92.145 109.538 92.4279 109.662 92.723 109.662ZM79.3735 126.138C79.0785 126.138 78.7955 126.262 78.5869 126.482C78.3783 126.703 78.2611 127.002 78.2611 127.314V132.022C78.2611 132.334 78.3783 132.633 78.5869 132.854C78.7955 133.075 79.0785 133.199 79.3735 133.199C79.6686 133.199 79.9515 133.075 80.1602 132.854C80.3688 132.633 80.486 132.334 80.486 132.022V127.314C80.486 127.002 80.3688 126.703 80.1602 126.482C79.9515 126.262 79.6686 126.138 79.3735 126.138ZM83.8233 126.138C83.5283 126.138 83.2453 126.262 83.0367 126.482C82.8281 126.703 82.7109 127.002 82.7109 127.314V132.022C82.7109 132.334 82.8281 132.633 83.0367 132.854C83.2453 133.075 83.5283 133.199 83.8233 133.199C84.1184 133.199 84.4013 133.075 84.61 132.854C84.8186 132.633 84.9358 132.334 84.9358 132.022V127.314C84.9358 127.002 84.8186 126.703 84.61 126.482C84.4013 126.262 84.1184 126.138 83.8233 126.138ZM88.2732 126.138C87.9781 126.138 87.6952 126.262 87.4865 126.482C87.2779 126.703 87.1607 127.002 87.1607 127.314V132.022C87.1607 132.334 87.2779 132.633 87.4865 132.854C87.6952 133.075 87.9781 133.199 88.2732 133.199C88.5682 133.199 88.8512 133.075 89.0598 132.854C89.2684 132.633 89.3856 132.334 89.3856 132.022V127.314C89.3856 127.002 89.2684 126.703 89.0598 126.482C88.8512 126.262 88.5682 126.138 88.2732 126.138ZM61.5743 126.138C61.2793 126.138 60.9963 126.262 60.7877 126.482C60.5791 126.703 60.4619 127.002 60.4619 127.314V132.022C60.4619 132.334 60.5791 132.633 60.7877 132.854C60.9963 133.075 61.2793 133.199 61.5743 133.199C61.8694 133.199 62.1523 133.075 62.3609 132.854C62.5696 132.633 62.6868 132.334 62.6868 132.022V127.314C62.6868 127.002 62.5696 126.703 62.3609 126.482C62.1523 126.262 61.8694 126.138 61.5743 126.138ZM66.0241 126.138C65.7291 126.138 65.4461 126.262 65.2375 126.482C65.0289 126.703 64.9117 127.002 64.9117 127.314V132.022C64.9117 132.334 65.0289 132.633 65.2375 132.854C65.4461 133.075 65.7291 133.199 66.0241 133.199C66.3192 133.199 66.6021 133.075 66.8107 132.854C67.0194 132.633 67.1366 132.334 67.1366 132.022V127.314C67.1366 127.002 67.0194 126.703 66.8107 126.482C66.6021 126.262 66.3192 126.138 66.0241 126.138ZM70.4739 126.138C70.1789 126.138 69.8959 126.262 69.6873 126.482C69.4787 126.703 69.3615 127.002 69.3615 127.314V132.022C69.3615 132.334 69.4787 132.633 69.6873 132.854C69.8959 133.075 70.1789 133.199 70.4739 133.199C70.769 133.199 71.0519 133.075 71.2606 132.854C71.4692 132.633 71.5864 132.334 71.5864 132.022V127.314C71.5864 127.002 71.4692 126.703 71.2606 126.482C71.0519 126.262 70.769 126.138 70.4739 126.138ZM74.9237 126.138C74.6287 126.138 74.3457 126.262 74.1371 126.482C73.9285 126.703 73.8113 127.002 73.8113 127.314V132.022C73.8113 132.334 73.9285 132.633 74.1371 132.854C74.3457 133.075 74.6287 133.199 74.9237 133.199C75.2188 133.199 75.5017 133.075 75.7104 132.854C75.919 132.633 76.0362 132.334 76.0362 132.022V127.314C76.0362 127.002 75.919 126.703 75.7104 126.482C75.5017 126.262 75.2188 126.138 74.9237 126.138ZM103.847 89.6549V94.3623C103.847 94.6745 103.73 94.9738 103.522 95.1945C103.313 95.4152 103.03 95.5392 102.735 95.5392H101.468L94.9356 141.611C94.8962 141.89 94.7634 142.144 94.5615 142.328C94.3596 142.512 94.1019 142.614 93.8354 142.614H56.0121C55.7455 142.614 55.4879 142.512 55.286 142.328C55.0841 142.144 54.9513 141.89 54.9118 141.611L48.3795 95.5392H47.1125C46.8174 95.5392 46.5345 95.4152 46.3258 95.1945C46.1172 94.9738 46 94.6745 46 94.3623V89.6549C46 89.3428 46.1172 89.0434 46.3258 88.8227C46.5345 88.602 46.8174 88.478 47.1125 88.478H48.3195C49.1227 83.1904 55.2556 79.0631 62.6868 79.0631C63.3555 79.066 64.0237 79.1025 64.6892 79.1726C64.8004 79.1844 64.9117 79.1902 65.0229 79.2032C66.7449 76.9335 68.9309 75.1063 71.4165 73.8591C73.9021 72.6118 76.6226 71.9768 79.3735 72.002C82.7061 71.9511 85.9859 72.8861 88.8432 74.7013C91.7005 76.5166 94.0217 79.14 95.5452 82.276C96.8175 82.8515 97.9632 83.6998 98.9101 84.7672C99.8569 85.8347 100.584 87.0982 101.046 88.478H102.735C103.03 88.478 103.313 88.602 103.522 88.8227C103.73 89.0434 103.847 89.3428 103.847 89.6549ZM62.6868 81.4169C62.2871 81.4175 61.8875 81.4312 61.4887 81.4581C61.3574 81.4663 61.2295 81.4828 61.0993 81.4945C60.839 81.5169 60.5787 81.5404 60.3206 81.5746C60.1682 81.5946 60.0202 81.6216 59.87 81.6452C59.642 81.6817 59.4151 81.7181 59.1926 81.7629C59.0368 81.7946 58.8855 81.8311 58.732 81.8664C58.523 81.9133 58.3149 81.9647 58.1079 82.0206C57.9544 82.0618 57.8053 82.1077 57.6563 82.1524C57.1223 82.316 56.5966 82.5081 56.081 82.7279C55.9431 82.7879 55.8074 82.8456 55.6739 82.9103C55.4959 82.995 55.3235 83.0833 55.1521 83.1739C55.0264 83.2398 54.9007 83.3046 54.7784 83.374C54.6081 83.4717 54.4446 83.5741 54.2833 83.6776C54.1721 83.7482 54.0608 83.8165 53.9496 83.8906C53.7816 84.0083 53.6236 84.126 53.4668 84.2437C53.3767 84.3131 53.2821 84.379 53.1964 84.4508C53.0142 84.6029 52.8372 84.7619 52.6658 84.9274C52.6191 84.9722 52.5668 85.0145 52.5223 85.0593C52.3154 85.265 52.1189 85.4822 51.9338 85.7101C51.8849 85.7713 51.8437 85.836 51.797 85.8972C51.6702 86.0619 51.5467 86.2279 51.4366 86.3985C51.3809 86.4868 51.3342 86.5786 51.2819 86.6668C51.1939 86.8151 51.1115 86.9671 51.035 87.1223C50.986 87.2223 50.9471 87.3247 50.9048 87.4271C50.8425 87.5754 50.7824 87.7237 50.7335 87.8755C50.6991 87.9835 50.668 88.0926 50.64 88.2027C50.6167 88.2921 50.5978 88.3839 50.5789 88.4745H98.619C97.7571 86.5476 96.2215 85.0501 94.336 84.2978C94.2974 84.2771 94.2602 84.2535 94.2248 84.2272C92.7566 83.6825 91.1677 83.6165 89.6637 84.0377C89.5222 84.0764 89.3749 84.0852 89.2302 84.0636C89.0855 84.042 88.9463 83.9905 88.8204 83.9119C88.6945 83.8334 88.5845 83.7294 88.4966 83.6059C88.4088 83.4824 88.3447 83.3418 88.3082 83.1922C88.2717 83.0425 88.2634 82.8867 88.2838 82.7336C88.3042 82.5805 88.3529 82.4332 88.4271 82.3C88.5013 82.1669 88.5996 82.0505 88.7164 81.9575C88.8331 81.8645 88.966 81.7968 89.1075 81.7582C90.2232 81.4544 91.3799 81.3557 92.5272 81.4663C91.0446 79.2409 89.0724 77.4307 86.7807 76.1919C84.4891 74.953 81.9469 74.3228 79.3735 74.3557C77.1641 74.3382 74.9749 74.8028 72.9427 75.7205C70.9106 76.6381 69.0791 77.9892 67.5626 79.6892C70.2008 80.3046 72.6322 81.6641 74.5989 83.6235C74.705 83.7322 74.7896 83.8622 74.8477 84.0059C74.9058 84.1495 74.9362 84.304 74.9373 84.4603C74.9384 84.6165 74.91 84.7714 74.8539 84.916C74.7978 85.0605 74.715 85.1918 74.6104 85.3021C74.5058 85.4125 74.3815 85.4997 74.2447 85.5586C74.1079 85.6176 73.9614 85.6472 73.8137 85.6456C73.666 85.644 73.5201 85.6113 73.3844 85.5495C73.2488 85.4876 73.1261 85.3978 73.0237 85.2852C70.7601 83.1248 67.8852 81.8162 64.846 81.5628C64.5991 81.5322 64.3532 81.4981 64.1074 81.4781C63.6347 81.4387 63.1609 81.4182 62.6868 81.4169ZM89.706 90.8318H72.2739L75.4433 97.5399L84.5019 93.2808L89.706 90.8318ZM69.3615 90.8318H58.237V104.954H69.3615V90.8318ZM58.237 109.662H69.3615V107.308H58.237V109.662ZM48.2249 93.1855H56.0121V90.8318H48.2249V93.1855ZM99.2186 95.5392H85.1728L75.3754 100.145C75.1138 100.268 74.8175 100.28 74.5482 100.177C74.2788 100.075 74.0572 99.8667 73.9292 99.5959L71.5864 94.6401V110.838C71.5864 111.151 71.4692 111.45 71.2606 111.671C71.0519 111.891 70.769 112.015 70.4739 112.015H57.1245C56.8295 112.015 56.5465 111.891 56.3379 111.671C56.1293 111.45 56.0121 111.151 56.0121 110.838V95.5392H50.6289L56.9699 140.26H92.8776L99.2186 95.5392ZM101.623 90.8318H95.1848L90.1788 93.1855H101.623V90.8318Z" fill="black"/>
<path d="M229.984 10.9909C227.563 12.237 225.726 13.1766 223.897 14.1268C223.279 14.4478 222.649 14.7604 222.077 15.1397C221.278 15.6705 220.108 16.2062 220.764 17.2744C221.384 18.2838 222.599 17.8272 223.54 17.5845C224.515 17.3332 225.448 16.9314 226.367 16.5368C230.51 14.7578 234.649 12.9709 238.772 11.1569C239.869 10.6746 240.989 10.1826 241.953 9.52623C243.985 8.14104 243.896 6.82013 241.627 5.7792C238.628 4.40408 235.54 3.18134 232.481 1.91147C231.184 1.37295 229.891 0.804894 228.54 0.397767C227.776 0.167637 226.898 0.237073 226.038 0.168945C225.807 1.75433 226.825 2.08507 227.715 2.50176C229.978 3.56085 232.246 4.61237 234.504 5.68046C235.3 6.05703 236.072 6.4727 236.857 7.35191C235.735 7.46418 234.615 7.62634 233.489 7.68067C224.897 8.09515 216.304 8.49305 207.71 8.88756C195.23 9.46054 182.749 10.0141 170.271 10.6177C169.254 10.6669 168.258 11.0372 167 11.3136C168.139 12.8365 169.467 12.4965 170.596 12.4705C176.74 12.329 182.882 12.128 189.025 11.9442C202.232 11.5491 215.439 11.1515 228.646 10.7608C228.841 10.755 229.038 10.8246 229.984 10.9909Z" fill="#3D277D"/>
</svg>
