<svg width="151" height="150" viewBox="0 0 151 150" fill="none" xmlns="http://www.w3.org/2000/svg">
<circle cx="75.2814" cy="75" r="75" fill="#D8D4E5"/>
<path d="M110.039 39.1577H40.5961C40.2892 39.1577 39.9948 39.2797 39.7777 39.4967C39.5607 39.7138 39.4387 40.0081 39.4387 40.3151V109.758C39.4387 110.065 39.5607 110.36 39.7777 110.577C39.9948 110.794 40.2892 110.916 40.5961 110.916H54.4848C54.7917 110.916 55.0861 110.794 55.3032 110.577C55.5202 110.36 55.6422 110.065 55.6422 109.758V106.286H94.9934V109.758C94.9934 110.065 95.1153 110.36 95.3324 110.577C95.5494 110.794 95.8438 110.916 96.1508 110.916H110.039C110.346 110.916 110.641 110.794 110.858 110.577C111.075 110.36 111.197 110.065 111.197 109.758V40.3151C111.197 40.0081 111.075 39.7138 110.858 39.4967C110.641 39.2797 110.346 39.1577 110.039 39.1577ZM41.7535 101.657H108.882V103.971H41.7535V101.657ZM53.3274 84.2959C53.3274 83.9889 53.4493 83.6945 53.6664 83.4775C53.8834 83.2604 54.1778 83.1385 54.4848 83.1385H69.5308C69.8378 83.1385 70.1322 83.2604 70.3492 83.4775C70.5663 83.6945 70.6882 83.9889 70.6882 84.2959C70.6882 84.6028 70.5663 84.8972 70.3492 85.1143C70.1322 85.3313 69.8378 85.4533 69.5308 85.4533H54.4848C54.1778 85.4533 53.8834 85.3313 53.6664 85.1143C53.4493 84.8972 53.3274 84.6028 53.3274 84.2959ZM53.3274 88.9254C53.3274 88.6185 53.4493 88.3241 53.6664 88.107C53.8834 87.89 54.1778 87.768 54.4848 87.768H69.5308C69.8378 87.768 70.1322 87.89 70.3492 88.107C70.5663 88.3241 70.6882 88.6185 70.6882 88.9254C70.6882 89.2324 70.5663 89.5268 70.3492 89.7438C70.1322 89.9609 69.8378 90.0828 69.5308 90.0828H54.4848C54.1778 90.0828 53.8834 89.9609 53.6664 89.7438C53.4493 89.5268 53.3274 89.2324 53.3274 88.9254ZM74.1604 92.3976V99.3419H41.7535V92.3976H74.1604ZM108.882 99.3419H76.4752V92.3976H108.882V99.3419ZM79.9473 84.2959C79.9473 83.9889 80.0693 83.6945 80.2863 83.4775C80.5034 83.2604 80.7978 83.1385 81.1047 83.1385H96.1508C96.4577 83.1385 96.7521 83.2604 96.9692 83.4775C97.1862 83.6945 97.3081 83.9889 97.3081 84.2959C97.3081 84.6028 97.1862 84.8972 96.9692 85.1143C96.7521 85.3313 96.4577 85.4533 96.1508 85.4533H81.1047C80.7978 85.4533 80.5034 85.3313 80.2863 85.1143C80.0693 84.8972 79.9473 84.6028 79.9473 84.2959ZM79.9473 88.9254C79.9473 88.6185 80.0693 88.3241 80.2863 88.107C80.5034 87.89 80.7978 87.768 81.1047 87.768H96.1508C96.4577 87.768 96.7521 87.89 96.9692 88.107C97.1862 88.3241 97.3081 88.6185 97.3081 88.9254C97.3081 89.2324 97.1862 89.5268 96.9692 89.7438C96.7521 89.9609 96.4577 90.0828 96.1508 90.0828H81.1047C80.7978 90.0828 80.5034 89.9609 80.2863 89.7438C80.0693 89.5268 79.9473 89.2324 79.9473 88.9254ZM108.882 90.0828H99.41C99.6283 89.4967 99.6789 88.8613 99.5563 88.248C99.4336 87.6347 99.1425 87.0677 98.7155 86.6106C99.1678 86.1148 99.466 85.498 99.5737 84.8356C99.6814 84.1731 99.594 83.4936 99.322 82.88C99.0501 82.2664 98.6054 81.7453 98.0423 81.3801C97.4792 81.015 96.8219 80.8216 96.1508 80.8237H81.1047C80.4332 80.8207 79.7753 81.0134 79.2115 81.3782C78.6476 81.743 78.2022 82.2641 77.9297 82.8779C77.6572 83.4917 77.5694 84.1715 77.6769 84.8344C77.7844 85.4973 78.0827 86.1145 78.5353 86.6106C78.1084 87.0677 77.8172 87.6347 77.6946 88.248C77.5719 88.8613 77.6226 89.4967 77.8409 90.0828H72.79C73.0083 89.4967 73.059 88.8613 72.9363 88.248C72.8137 87.6347 72.5225 87.0677 72.0956 86.6106C72.5479 86.1148 72.8461 85.498 72.9538 84.8356C73.0615 84.1731 72.974 83.4936 72.7021 82.88C72.4301 82.2664 71.9855 81.7453 71.4223 81.3801C70.8592 81.015 70.202 80.8216 69.5308 80.8237H54.4848C53.8132 80.8207 53.1554 81.0134 52.5915 81.3782C52.0277 81.743 51.5823 82.2641 51.3098 82.8779C51.0373 83.4917 50.9494 84.1715 51.057 84.8344C51.1645 85.4973 51.4628 86.1145 51.9154 86.6106C51.4884 87.0677 51.1973 87.6347 51.0746 88.248C50.952 88.8613 51.0026 89.4967 51.2209 90.0828H41.7535V47.2594H62.5865V51.889H54.4848C54.2812 51.8886 54.0812 51.9419 53.9048 52.0435C53.7284 52.1451 53.5819 52.2914 53.4802 52.4677L48.8506 60.5694C48.7094 60.8147 48.6629 61.1033 48.7201 61.3806C48.7772 61.6578 48.934 61.9045 49.1608 62.074L53.3274 65.199V77.3515C53.3274 77.6585 53.4493 77.9529 53.6664 78.1699C53.8834 78.387 54.1778 78.5089 54.4848 78.5089H96.1508C96.4577 78.5089 96.7521 78.387 96.9692 78.1699C97.1862 77.9529 97.3081 77.6585 97.3081 77.3515V65.199L101.475 62.074C101.702 61.9045 101.858 61.6578 101.915 61.3806C101.973 61.1033 101.926 60.8147 101.785 60.5694L97.1554 52.4677C97.0536 52.2914 96.9071 52.1451 96.7308 52.0435C96.5544 51.9419 96.3543 51.8886 96.1508 51.889H88.049V47.2594H108.882V90.0828ZM55.1792 63.6944L51.3668 60.8344L55.1561 54.2038H58.0727C58.3383 55.5119 59.048 56.6881 60.0816 57.5329C61.1152 58.3776 62.409 58.8391 63.7439 58.8391C65.0788 58.8391 66.3726 58.3776 67.4062 57.5329C68.4397 56.6881 69.1494 55.5119 69.4151 54.2038H72.3317L76.121 60.8344L72.3086 63.6944C72.1648 63.8022 72.0481 63.942 71.9678 64.1027C71.8874 64.2634 71.8456 64.4406 71.8456 64.6203V76.1941H55.6422V64.6203C55.6422 64.4406 55.6003 64.2634 55.52 64.1027C55.4396 63.942 55.3229 63.8022 55.1792 63.6944ZM67.0031 54.2038C66.7674 54.8803 66.327 55.4667 65.743 55.8817C65.159 56.2967 64.4603 56.5196 63.7439 56.5196C63.0275 56.5196 62.3288 56.2967 61.7448 55.8817C61.1608 55.4667 60.7204 54.8803 60.4847 54.2038H67.0031ZM78.577 54.2038C78.3909 54.7281 78.082 55.2002 77.6761 55.5805C77.2701 55.9609 76.7789 56.2385 76.2437 56.3901L74.9972 54.2038H78.577ZM74.1604 65.199L78.327 62.074C78.5537 61.9045 78.7105 61.6578 78.7677 61.3806C78.8249 61.1033 78.7784 60.8147 78.6372 60.5694L77.4115 58.4282C78.3117 58.0766 79.1102 57.5063 79.7348 56.7687C80.3594 56.0312 80.7905 55.1496 80.989 54.2038H83.9056L87.6949 60.8344L83.8824 63.6944C83.7387 63.8022 83.622 63.942 83.5417 64.1027C83.4613 64.2634 83.4195 64.4406 83.4195 64.6203V76.1941H74.1604V65.199ZM85.7343 65.199L89.9009 62.074C90.1276 61.9045 90.2844 61.6578 90.3416 61.3806C90.3987 61.1033 90.3523 60.8147 90.211 60.5694L88.9854 58.4282C89.8856 58.0766 90.6841 57.5063 91.3087 56.7687C91.9333 56.0312 92.3643 55.1496 92.5629 54.2038H95.4795L99.2688 60.8344L95.4563 63.6944C95.3126 63.8022 95.1959 63.942 95.1156 64.1027C95.0352 64.2634 94.9934 64.4406 94.9934 64.6203V76.1941H85.7343V65.199ZM87.8176 56.3901L86.5711 54.2038H90.1532C89.9669 54.7283 89.6576 55.2006 89.2513 55.581C88.8449 55.9614 88.3533 56.2388 87.8176 56.3901ZM84.5769 51.889H76.4752V47.2594H85.7343V51.889H84.5769ZM74.1604 51.889H64.9013V47.2594H74.1604V51.889ZM108.882 41.4725V44.9447H41.7535V41.4725H108.882ZM53.3274 108.601H41.7535V106.286H53.3274V108.601ZM97.3081 108.601V106.286H108.882V108.601H97.3081Z" fill="black"/>
<path d="M97.3082 94.7124H88.0491V97.0272H97.3082V94.7124Z" fill="black"/>
<path d="M62.5865 94.7124H53.3274V97.0272H62.5865V94.7124Z" fill="black"/>
</svg>
