<svg width="1125" height="582" viewBox="0 0 1125 582" fill="none" xmlns="http://www.w3.org/2000/svg">
<rect x="-27" width="1152" height="582" fill="#D9D9D9" fill-opacity="0.24"/>
<circle cx="437.76" cy="413" r="75" fill="#D8D4E5"/>
<path fill-rule="evenodd" clip-rule="evenodd" d="M440.59 390.308H412.355C408.869 390.308 406.042 393.243 406.042 396.864V439.198C406.042 442.818 408.869 445.754 412.355 445.754H453.121C456.607 445.754 459.434 442.818 459.434 439.198V408.246H464.208C466.768 408.246 468.856 406.094 468.856 403.419V385.35C468.856 382.692 466.783 380.523 464.208 380.523H445.238C442.678 380.523 440.59 382.676 440.59 385.35V390.308ZM440.59 403.354H409.183V439.198C409.183 441.008 410.596 442.492 412.355 442.492H453.121C454.864 442.492 456.293 441.024 456.293 439.198V408.246H445.238C442.678 408.246 440.59 406.094 440.59 403.419V403.354ZM420.175 413.138H417.034C415.794 413.138 414.585 413.66 413.705 414.574C412.826 415.487 412.323 416.742 412.323 418.031V427.815C412.323 429.104 412.826 430.359 413.705 431.272C414.585 432.186 415.794 432.708 417.034 432.708H420.175C423.033 436.67 427.603 439.231 432.738 439.231C441.406 439.231 448.442 431.925 448.442 422.923C448.442 413.921 441.406 406.615 432.738 406.615C427.603 406.615 423.049 409.176 420.175 413.138ZM432.738 409.877C439.679 409.877 445.301 415.715 445.301 422.923C445.301 430.131 439.679 435.969 432.738 435.969C425.797 435.969 420.175 430.131 420.175 422.923C420.175 415.715 425.797 409.877 432.738 409.877ZM432.738 411.508C426.676 411.508 421.745 416.628 421.745 422.923C421.745 429.218 426.676 434.338 432.738 434.338C438.8 434.338 443.73 429.218 443.73 422.923C443.73 416.628 438.8 411.508 432.738 411.508ZM439.019 418.031C437.59 416.058 435.298 414.769 432.738 414.769C428.404 414.769 424.886 418.422 424.886 422.923C424.886 427.424 428.404 431.077 432.738 431.077C435.298 431.077 437.59 429.788 439.019 427.815C437.763 427.815 436.57 427.293 435.69 426.38C434.811 425.467 434.308 424.211 434.308 422.923C434.308 421.635 434.811 420.379 435.69 419.466C436.57 418.553 437.779 418.031 439.019 418.031ZM418.338 416.4H417.019C416.61 416.4 416.202 416.579 415.904 416.873C415.605 417.183 415.448 417.59 415.448 418.031V427.815C415.448 428.239 415.621 428.663 415.904 428.973C416.202 429.283 416.595 429.446 417.019 429.446H418.338C417.49 427.44 417.034 425.239 417.034 422.923C417.034 420.607 417.506 418.406 418.338 416.4ZM440.433 421.292H439.019C438.595 421.292 438.203 421.472 437.904 421.765C437.606 422.075 437.449 422.483 437.449 422.923C437.449 423.363 437.622 423.771 437.904 424.081C438.203 424.391 438.595 424.554 439.019 424.554H440.433C440.543 424.032 440.59 423.477 440.59 422.923C440.59 422.369 440.543 421.814 440.433 421.292ZM465.715 385.35V403.419C465.715 404.284 465.04 404.985 464.208 404.985H445.238C444.406 404.985 443.73 404.284 443.73 403.419V385.35C443.73 384.486 444.406 383.785 445.238 383.785H464.208C465.04 383.785 465.715 384.486 465.715 385.35ZM448.442 395.2C447.578 395.2 446.871 395.934 446.871 396.831C446.871 397.728 447.578 398.462 448.442 398.462H450.012C450.012 399.766 450.514 401.006 451.394 401.919C452.273 402.832 453.482 403.354 454.723 403.354C455.964 403.354 457.173 402.832 458.052 401.919C458.931 401.006 459.434 399.75 459.434 398.462H461.004C461.868 398.462 462.575 397.728 462.575 396.831C462.575 395.934 461.868 395.2 461.004 395.2V391.939C461.004 388.335 458.193 385.416 454.723 385.416C451.252 385.416 448.442 388.335 448.442 391.939V395.2ZM456.293 398.462H453.153C453.153 398.902 453.325 399.31 453.608 399.62C453.906 399.929 454.299 400.092 454.723 400.092C455.147 400.092 455.54 399.913 455.838 399.62C456.136 399.31 456.293 398.902 456.293 398.462ZM440.59 395.2V393.569H429.597V400.092H440.59V398.462H434.308C433.445 398.462 432.738 397.728 432.738 396.831C432.738 395.934 433.445 395.2 434.308 395.2H440.59ZM426.457 393.569H412.355C410.612 393.569 409.183 395.037 409.183 396.864V400.092H426.457V393.569ZM420.175 398.462H423.316C424.18 398.462 424.886 397.728 424.886 396.831C424.886 395.934 424.18 395.2 423.316 395.2H420.175C419.311 395.2 418.605 395.934 418.605 396.831C418.605 397.728 419.311 398.462 420.175 398.462ZM412.323 398.462H415.464C416.328 398.462 417.034 397.728 417.034 396.831C417.034 395.934 416.328 395.2 415.464 395.2H412.323C411.46 395.2 410.753 395.934 410.753 396.831C410.753 397.728 411.46 398.462 412.323 398.462ZM457.864 391.939V395.2H451.582V391.939C451.582 390.145 452.996 388.677 454.723 388.677C456.45 388.677 457.864 390.145 457.864 391.939Z" fill="black"/>
<path d="M510 552.322C510.152 553.562 510.076 554.852 510.511 556.032C511.135 557.725 511.893 559.438 513.008 560.967C519.994 570.548 530.241 577.586 543.997 580.494C558.035 583.461 571.299 581.101 582.355 573.425C587.891 569.58 592.198 564.978 595.423 559.805C596.006 558.869 596.62 557.944 597.606 556.415C598.846 558.555 599.792 560.186 600.738 561.818C601.044 561.768 601.35 561.717 601.657 561.667C601.777 561.161 602.048 560.646 601.993 560.152C601.704 557.571 601.362 554.993 600.98 552.419C600.735 550.764 600.464 548.983 598.139 548.264C595.639 547.491 593.539 548.536 591.923 549.837C589.701 551.624 587.688 553.574 585.762 555.554C585.364 555.962 585.74 556.809 585.759 557.453C586.599 557.434 587.684 557.664 588.234 557.349C589.946 556.371 591.455 555.186 593.076 554.058C593.196 554.267 593.345 554.398 593.307 554.479C585.829 570.634 570.414 580.252 548.487 578.601C547.419 578.521 546.342 578.353 545.32 578.104C530.59 574.512 519.712 567.487 513.055 556.79C512.17 555.369 511.819 553.754 511.221 552.229C510.814 552.26 510.407 552.291 510 552.322Z" fill="#3D277D"/>
</svg>
