<svg width="240" height="244" viewBox="0 0 240 244" fill="none" xmlns="http://www.w3.org/2000/svg">
<circle cx="75.7605" cy="75" r="75" fill="#D8D4E5"/>
<path fill-rule="evenodd" clip-rule="evenodd" d="M78.5897 52.308H50.3548C46.8686 52.308 44.0419 55.2433 44.0419 58.8636V101.198C44.0419 104.818 46.8686 107.754 50.3548 107.754H91.1212C94.6074 107.754 97.434 104.818 97.434 101.198V70.2462H102.208C104.768 70.2462 106.856 68.0936 106.856 65.4192V47.3505C106.856 44.6923 104.783 42.5234 102.208 42.5234H83.238C80.6783 42.5234 78.5897 44.676 78.5897 47.3505V52.308ZM78.5897 65.354H47.1827V101.198C47.1827 103.008 48.596 104.492 50.3548 104.492H91.1212C92.8643 104.492 94.2933 103.024 94.2933 101.198V70.2462H83.238C80.6783 70.2462 78.5897 68.0936 78.5897 65.4192V65.354ZM58.1751 75.1385H55.0344C53.7938 75.1385 52.5847 75.6603 51.7053 76.5736C50.8259 77.4868 50.3234 78.7425 50.3234 80.0307V89.8153C50.3234 91.1036 50.8259 92.3592 51.7053 93.2725C52.5847 94.1857 53.7938 94.7075 55.0344 94.7075H58.1751C61.0332 98.6702 65.6029 101.231 70.738 101.231C79.4063 101.231 86.4415 93.9248 86.4415 84.923C86.4415 75.9212 79.4063 68.6155 70.738 68.6155C65.6029 68.6155 61.0489 71.1758 58.1751 75.1385ZM70.738 71.877C77.6789 71.877 83.3008 77.7151 83.3008 84.923C83.3008 92.1309 77.6789 97.969 70.738 97.969C63.797 97.969 58.1751 92.1309 58.1751 84.923C58.1751 77.7151 63.797 71.877 70.738 71.877ZM70.738 73.5077C64.6764 73.5077 59.7455 78.6283 59.7455 84.923C59.7455 91.2177 64.6764 96.3383 70.738 96.3383C76.7995 96.3383 81.7304 91.2177 81.7304 84.923C81.7304 78.6283 76.7995 73.5077 70.738 73.5077ZM77.0194 80.0307C75.5904 78.0575 73.2976 76.7692 70.738 76.7692C66.4038 76.7692 62.8862 80.4221 62.8862 84.923C62.8862 89.4239 66.4038 93.0768 70.738 93.0768C73.2976 93.0768 75.5904 91.7885 77.0194 89.8153C75.7631 89.8153 74.5696 89.2934 73.6902 88.3802C72.8108 87.467 72.3083 86.2113 72.3083 84.923C72.3083 83.6347 72.8108 82.379 73.6902 81.4658C74.5696 80.5526 75.7788 80.0307 77.0194 80.0307ZM56.3378 78.4H55.0187C54.6104 78.4 54.2021 78.5794 53.9038 78.8729C53.6054 79.1828 53.4484 79.5904 53.4484 80.0307V89.8153C53.4484 90.2393 53.6211 90.6632 53.9038 90.9731C54.2021 91.2829 54.5947 91.446 55.0187 91.446H56.3378C55.4898 89.4402 55.0344 87.2387 55.0344 84.923C55.0344 82.6073 55.5055 80.4058 56.3378 78.4ZM78.4327 83.2923H77.0194C76.5954 83.2923 76.2028 83.4716 75.9044 83.7652C75.6061 84.075 75.449 84.4827 75.449 84.923C75.449 85.3633 75.6218 85.771 75.9044 86.0808C76.2028 86.3907 76.5954 86.5538 77.0194 86.5538H78.4327C78.5426 86.0319 78.5897 85.4775 78.5897 84.923C78.5897 84.3685 78.5426 83.8141 78.4327 83.2923ZM103.715 47.3505V65.4192C103.715 66.2835 103.04 66.9847 102.208 66.9847H83.238C82.4057 66.9847 81.7304 66.2835 81.7304 65.4192V47.3505C81.7304 46.4862 82.4057 45.7849 83.238 45.7849H102.208C103.04 45.7849 103.715 46.4862 103.715 47.3505ZM86.4415 57.2002C85.5778 57.2002 84.8712 57.934 84.8712 58.831C84.8712 59.7279 85.5778 60.4617 86.4415 60.4617H88.0119C88.0119 61.7663 88.5144 63.0057 89.3938 63.9189C90.2732 64.8321 91.4823 65.354 92.7229 65.354C93.9635 65.354 95.1727 64.8321 96.0521 63.9189C96.9315 63.0057 97.434 61.75 97.434 60.4617H99.0043C99.868 60.4617 100.575 59.7279 100.575 58.831C100.575 57.934 99.868 57.2002 99.0043 57.2002V53.9387C99.0043 50.3347 96.1934 47.4157 92.7229 47.4157C89.2524 47.4157 86.4415 50.3347 86.4415 53.9387V57.2002ZM94.2933 60.4617H91.1526C91.1526 60.902 91.3253 61.3097 91.608 61.6196C91.9063 61.9294 92.2989 62.0925 92.7229 62.0925C93.1469 62.0925 93.5395 61.9131 93.8379 61.6196C94.1362 61.3097 94.2933 60.902 94.2933 60.4617ZM78.5897 57.2002V55.5695H67.5973V62.0925H78.5897V60.4617H72.3083C71.4446 60.4617 70.738 59.7279 70.738 58.831C70.738 57.934 71.4446 57.2002 72.3083 57.2002H78.5897ZM64.4566 55.5695H50.3548C48.6117 55.5695 47.1827 57.0371 47.1827 58.8636V62.0925H64.4566V55.5695ZM58.1751 60.4617H61.3158C62.1795 60.4617 62.8862 59.7279 62.8862 58.831C62.8862 57.934 62.1795 57.2002 61.3158 57.2002H58.1751C57.3114 57.2002 56.6048 57.934 56.6048 58.831C56.6048 59.7279 57.3114 60.4617 58.1751 60.4617ZM50.3234 60.4617H53.4641C54.3278 60.4617 55.0344 59.7279 55.0344 58.831C55.0344 57.934 54.3278 57.2002 53.4641 57.2002H50.3234C49.4597 57.2002 48.753 57.934 48.753 58.831C48.753 59.7279 49.4597 60.4617 50.3234 60.4617ZM95.8636 53.9387V57.2002H89.5822V53.9387C89.5822 52.1449 90.9955 50.6772 92.7229 50.6772C94.4503 50.6772 95.8636 52.1449 95.8636 53.9387Z" fill="black"/>
<path d="M148 214.322C148.152 215.562 148.076 216.852 148.511 218.032C149.135 219.725 149.893 221.438 151.008 222.967C157.994 232.548 168.241 239.586 181.997 242.494C196.035 245.461 209.299 243.101 220.355 235.425C225.891 231.58 230.198 226.978 233.423 221.805C234.006 220.869 234.62 219.944 235.606 218.415C236.846 220.555 237.792 222.186 238.738 223.818C239.044 223.768 239.35 223.717 239.657 223.667C239.777 223.161 240.048 222.646 239.993 222.152C239.704 219.571 239.362 216.993 238.98 214.419C238.735 212.764 238.464 210.983 236.139 210.264C233.639 209.491 231.539 210.536 229.923 211.837C227.701 213.624 225.688 215.574 223.762 217.554C223.364 217.962 223.74 218.809 223.759 219.453C224.599 219.434 225.684 219.664 226.234 219.349C227.946 218.371 229.455 217.186 231.076 216.058C231.196 216.267 231.345 216.398 231.307 216.479C223.829 232.634 208.414 242.252 186.487 240.601C185.419 240.521 184.342 240.353 183.32 240.104C168.59 236.512 157.712 229.487 151.055 218.79C150.17 217.369 149.819 215.754 149.221 214.229C148.814 214.26 148.407 214.291 148 214.322Z" fill="#3D277D"/>
</svg>
