<svg width="39" height="43" viewBox="0 0 39 43" fill="none" xmlns="http://www.w3.org/2000/svg">
<g clip-path="url(#clip0_2423_757)">
<path d="M35.877 10.9141C37.1391 10.9141 38.1621 12.033 38.1621 13.4135C38.1621 14.7931 37.1384 15.9128 35.877 15.9128H35.1152L34.384 13.4135L35.1152 10.9141H35.877ZM35.1152 20.9116V24.2441L30.2402 25.0217L24.4512 24.2441C24.4512 23.1307 24.4512 22.0229 24.4512 20.9116L29.0621 19.441L35.1152 20.9116Z" fill="white"/>
<path d="M35.1152 24.2441H24.4512V28.4098H35.1152V24.2441Z" fill="#9E93BE"/>
<path d="M16.0723 10.9141L10.1918 11.8138L4.64648 10.9141C4.64648 9.92989 4.64648 5.02258 4.64648 4.24902H9.97852C13.3438 4.24902 16.0723 7.23329 16.0723 10.9141Z" fill="white"/>
<path d="M24.4512 10.9141L25.2028 13.4135L24.4512 15.9128C23.3307 15.9128 4.18648 15.9128 3.12305 15.9128C1.86088 15.9128 0.837891 14.7939 0.837891 13.4135C0.837891 12.0338 1.86164 10.9141 3.12305 10.9141C7.1728 10.9141 20.0983 10.9141 24.4512 10.9141Z" fill="white"/>
<path d="M35.1152 20.9115H24.4512C24.4512 19.3261 24.4512 10.2459 24.4512 8.41455H35.1152C35.1152 10.0126 35.1152 19.5568 35.1152 20.9115Z" fill="#9E93BE"/>
<path d="M35.877 10.0811V8.41479C35.877 7.95466 35.5359 7.58167 35.1152 7.58167H24.4512C24.0305 7.58167 23.6895 7.95466 23.6895 8.41479V10.0811H16.7914C16.4113 6.33722 13.5012 3.41602 9.97852 3.41602H5.4082V1.74976H8.45508C8.87578 1.74976 9.2168 1.37676 9.2168 0.916626C9.2168 0.456488 8.87578 0.0834961 8.45508 0.0834961H4.64648C4.22579 0.0834961 3.88477 0.456488 3.88477 0.916626C3.88477 2.17732 3.88477 8.81028 3.88477 10.0811H3.12305C1.443 10.0811 0.0761719 11.576 0.0761719 13.4136C0.0761719 15.2511 1.443 16.7461 3.12305 16.7461H5.88108L18.3512 28.8265L5.88108 40.9069H4.64648C4.22579 40.9069 3.88477 41.2799 3.88477 41.74C3.88477 42.2001 4.22579 42.5731 4.64648 42.5731H6.16992C6.35601 42.5731 6.53562 42.4986 6.67494 42.3637L19.5 29.9395L32.3251 42.3637C32.4644 42.4986 32.6441 42.5731 32.8301 42.5731H34.3535C34.7742 42.5731 35.1152 42.2001 35.1152 41.74C35.1152 41.2799 34.7742 40.9069 34.3535 40.9069H33.1189L20.6489 28.8265L23.6895 25.881V28.4099C23.6895 28.8701 24.0305 29.243 24.4512 29.243H35.1152C35.5359 29.243 35.877 28.8701 35.877 28.4099C35.877 25.9828 35.877 19.1733 35.877 16.7461C37.557 16.7461 38.9238 15.2511 38.9238 13.4136C38.9238 11.576 37.557 10.0811 35.877 10.0811ZM25.2129 9.24792H34.3535V20.0786H25.2129V9.24792ZM34.3535 23.4111H25.2129V21.7449H34.3535V23.4111ZM5.4082 5.08228H9.97852C12.66 5.08228 14.8856 7.25858 15.2563 10.0811H5.4082V5.08228ZM1.59961 13.4136C1.59961 12.4948 2.28302 11.7473 3.12305 11.7473C4.65433 11.7473 22.7001 11.7473 23.6895 11.7473V15.0798H3.12305C2.28302 15.0798 1.59961 14.3323 1.59961 13.4136ZM8.17873 16.7461H23.6895C23.6895 17.8876 23.6895 21.9681 23.6895 23.6552L19.5001 27.7136L8.17873 16.7461ZM25.2129 27.5768V25.0774H34.3535V27.5768H25.2129ZM35.877 15.0798V11.7473C36.717 11.7473 37.4004 12.4948 37.4004 13.4136C37.4004 14.3323 36.717 15.0798 35.877 15.0798Z" fill="black"/>
</g>
<defs>
<clipPath id="clip0_2423_757">
<rect width="39" height="42.6562" fill="white"/>
</clipPath>
</defs>
</svg>
