<svg width="52" height="54" viewBox="0 0 52 54" fill="none" xmlns="http://www.w3.org/2000/svg">
<path fill-rule="evenodd" clip-rule="evenodd" d="M28.1666 11.25H8.68825C6.28325 11.25 4.33325 13.275 4.33325 15.7725V44.9775C4.33325 47.475 6.28325 49.5 8.68825 49.5H36.8116C39.2166 49.5 41.1666 47.475 41.1666 44.9775V23.625H44.4599C46.2257 23.625 47.6666 22.14 47.6666 20.295V7.83C47.6666 5.99625 46.2366 4.5 44.4599 4.5H31.3732C29.6074 4.5 28.1666 5.985 28.1666 7.83V11.25ZM28.1666 20.25H6.49992V44.9775C6.49992 46.2262 7.47492 47.25 8.68825 47.25H36.8116C38.0141 47.25 38.9999 46.2375 38.9999 44.9775V23.625H31.3732C29.6074 23.625 28.1666 22.14 28.1666 20.295V20.25ZM14.0833 27H11.9166C11.0608 27 10.2266 27.36 9.61992 27.99C9.01325 28.62 8.66658 29.4862 8.66658 30.375V37.125C8.66658 38.0137 9.01325 38.88 9.61992 39.51C10.2266 40.14 11.0608 40.5 11.9166 40.5H14.0833C16.0549 43.2337 19.2074 45 22.7499 45C28.7299 45 33.5833 39.96 33.5833 33.75C33.5833 27.54 28.7299 22.5 22.7499 22.5C19.2074 22.5 16.0658 24.2662 14.0833 27ZM22.7499 24.75C27.5382 24.75 31.4166 28.7775 31.4166 33.75C31.4166 38.7225 27.5382 42.75 22.7499 42.75C17.9616 42.75 14.0833 38.7225 14.0833 33.75C14.0833 28.7775 17.9616 24.75 22.7499 24.75ZM22.7499 25.875C18.5683 25.875 15.1666 29.4075 15.1666 33.75C15.1666 38.0925 18.5683 41.625 22.7499 41.625C26.9316 41.625 30.3333 38.0925 30.3333 33.75C30.3333 29.4075 26.9316 25.875 22.7499 25.875ZM27.0833 30.375C26.0974 29.0137 24.5158 28.125 22.7499 28.125C19.7599 28.125 17.3333 30.645 17.3333 33.75C17.3333 36.855 19.7599 39.375 22.7499 39.375C24.5158 39.375 26.0974 38.4862 27.0833 37.125C26.2166 37.125 25.3932 36.765 24.7866 36.135C24.1799 35.505 23.8333 34.6387 23.8333 33.75C23.8333 32.8612 24.1799 31.995 24.7866 31.365C25.3932 30.735 26.2274 30.375 27.0833 30.375ZM12.8158 29.25H11.9058C11.6241 29.25 11.3424 29.3737 11.1366 29.5762C10.9308 29.79 10.8224 30.0712 10.8224 30.375V37.125C10.8224 37.4175 10.9416 37.71 11.1366 37.9237C11.3424 38.1375 11.6133 38.25 11.9058 38.25H12.8158C12.2308 36.8662 11.9166 35.3475 11.9166 33.75C11.9166 32.1525 12.2416 30.6337 12.8158 29.25ZM28.0583 32.625H27.0833C26.7908 32.625 26.5199 32.7487 26.3141 32.9512C26.1083 33.165 25.9999 33.4462 25.9999 33.75C25.9999 34.0537 26.1191 34.335 26.3141 34.5487C26.5199 34.7625 26.7908 34.875 27.0833 34.875H28.0583C28.1341 34.515 28.1666 34.1325 28.1666 33.75C28.1666 33.3675 28.1341 32.985 28.0583 32.625ZM45.4999 7.83V20.295C45.4999 20.8912 45.0341 21.375 44.4599 21.375H31.3732C30.7991 21.375 30.3333 20.8912 30.3333 20.295V7.83C30.3333 7.23375 30.7991 6.75 31.3732 6.75H44.4599C45.0341 6.75 45.4999 7.23375 45.4999 7.83ZM33.5833 14.625C32.9874 14.625 32.4999 15.1312 32.4999 15.75C32.4999 16.3687 32.9874 16.875 33.5833 16.875H34.6666C34.6666 17.775 35.0133 18.63 35.6199 19.26C36.2266 19.89 37.0607 20.25 37.9166 20.25C38.7724 20.25 39.6066 19.89 40.2132 19.26C40.8199 18.63 41.1666 17.7637 41.1666 16.875H42.2499C42.8457 16.875 43.3332 16.3687 43.3332 15.75C43.3332 15.1312 42.8457 14.625 42.2499 14.625V12.375C42.2499 9.88875 40.3107 7.875 37.9166 7.875C35.5224 7.875 33.5833 9.88875 33.5833 12.375V14.625ZM38.9999 16.875H36.8332C36.8332 17.1787 36.9524 17.46 37.1474 17.6737C37.3533 17.8875 37.6241 18 37.9166 18C38.2091 18 38.4799 17.8762 38.6857 17.6737C38.8916 17.46 38.9999 17.1787 38.9999 16.875ZM28.1666 14.625V13.5H20.5833V18H28.1666V16.875H23.8333C23.2374 16.875 22.7499 16.3687 22.7499 15.75C22.7499 15.1312 23.2374 14.625 23.8333 14.625H28.1666ZM18.4166 13.5H8.68825C7.48575 13.5 6.49992 14.5125 6.49992 15.7725V18H18.4166V13.5ZM14.0833 16.875H16.2499C16.8458 16.875 17.3333 16.3687 17.3333 15.75C17.3333 15.1312 16.8458 14.625 16.2499 14.625H14.0833C13.4874 14.625 12.9999 15.1312 12.9999 15.75C12.9999 16.3687 13.4874 16.875 14.0833 16.875ZM8.66658 16.875H10.8333C11.4291 16.875 11.9166 16.3687 11.9166 15.75C11.9166 15.1312 11.4291 14.625 10.8333 14.625H8.66658C8.07075 14.625 7.58325 15.1312 7.58325 15.75C7.58325 16.3687 8.07075 16.875 8.66658 16.875ZM40.0832 12.375V14.625H35.7499V12.375C35.7499 11.1375 36.7249 10.125 37.9166 10.125C39.1082 10.125 40.0832 11.1375 40.0832 12.375Z" fill="black"/>
</svg>
